<svg xmlns="http://www.w3.org/2000/svg" xmlns:xlink="http://www.w3.org/1999/xlink" contentStyleType="text/css" data-diagram-type="CLASS" height="4709.375px" preserveAspectRatio="none" style="width:7112px;height:4709px;background:#FFFFFF;" version="1.1" viewBox="0 0 7112 4709" width="7112.5px" zoomAndPan="magnify"><defs/><g><!--cluster utilities--><g class="cluster" data-entity="utilities" data-source-line="9" data-uid="ent0002" id="cluster_utilities"><path d="M4676.5625,809.9687 L4868.3594,809.9687 A11.7188,11.7188 0 0 1 4876.1719,817.7812 L4898.0469,879.6465 L5342.1875,879.6465 A7.8125,7.8125 0 0 1 5350,887.459 L5350,1061.5312 A7.8125,7.8125 0 0 1 5342.1875,1069.3437 L4676.5625,1069.3437 A7.8125,7.8125 0 0 1 4668.75,1061.5312 L4668.75,817.7812 A7.8125,7.8125 0 0 1 4676.5625,809.9687" fill="none" style="stroke:#000000;stroke-width:4.6875;"/><line style="stroke:#000000;stroke-width:4.6875;" x1="4668.75" x2="4898.0469" y1="879.6465" y2="879.6465"/><text fill="#000000" font-family="sans-serif" font-size="43.75" font-weight="bold" lengthAdjust="spacing" textLength="188.6719" x="4681.25" y="856.8285">utilities</text></g><!--cluster pins--><g class="cluster" data-entity="pins" data-source-line="13" data-uid="ent0004" id="cluster_pins"><path d="M26.5625,18.75 L133.1879,18.75 A11.7188,11.7188 0 0 1 141.0004,26.5625 L162.8754,88.4277 L2745.3125,88.4277 A7.8125,7.8125 0 0 1 2753.125,96.2402 L2753.125,1565.25 A7.8125,7.8125 0 0 1 2745.3125,1573.0625 L26.5625,1573.0625 A7.8125,7.8125 0 0 1 18.75,1565.25 L18.75,26.5625 A7.8125,7.8125 0 0 1 26.5625,18.75" fill="none" style="stroke:#000000;stroke-width:4.6875;"/><line style="stroke:#000000;stroke-width:4.6875;" x1="18.75" x2="162.8754" y1="88.4277" y2="88.4277"/><text fill="#000000" font-family="sans-serif" font-size="43.75" font-weight="bold" lengthAdjust="spacing" textLength="103.5004" x="31.25" y="65.6097">pins</text></g><!--class VariadicAggregation--><g class="entity" data-entity="VariadicAggregation" data-source-line="10" data-uid="ent0003" id="entity_VariadicAggregation"><rect fill="#F1F1F1" height="100" rx="7.8125" ry="7.8125" style="stroke:#181818;stroke-width:1.5625;" width="581.8359" x="4718.4688" y="919.3437"/><ellipse cx="4765.3438" cy="969.3437" fill="#ADD1B2" rx="34.375" ry="34.375" style="stroke:#181818;stroke-width:3.125;"/><path d="M4774.6211,986.9707 Q4772.8145,987.8984 4770.8125,988.3379 Q4768.8105,988.8262 4766.6133,988.8262 Q4758.8008,988.8262 4754.6504,983.6992 Q4750.5488,978.5234 4750.5488,968.7578 Q4750.5488,958.9922 4754.6504,953.8164 Q4758.8008,948.6406 4766.6133,948.6406 Q4768.8105,948.6406 4770.8125,949.1289 Q4772.8633,949.6172 4774.6211,950.5449 L4774.6211,959.041 Q4772.668,957.2344 4770.8125,956.4043 Q4768.957,955.5254 4767.0039,955.5254 Q4762.8047,955.5254 4760.6563,958.8945 Q4758.5078,962.2148 4758.5078,968.7578 Q4758.5078,975.3008 4760.6563,978.6699 Q4762.8047,981.9902 4767.0039,981.9902 Q4768.957,981.9902 4770.8125,981.1602 Q4772.668,980.2812 4774.6211,978.4746 L4774.6211,986.9707 Z " fill="#000000"/><text fill="#000000" font-family="sans-serif" font-size="43.75" lengthAdjust="spacing" textLength="446.4294" x="4809.0938" y="984.4896">VariadicAggregation</text><rect fill="#FFFFFF" height="49.9023" style="stroke:#181818;stroke-width:3.125;stroke-dasharray:2.0,2.0;" width="29.1565" x="5280.5232" y="909.9687"/><text fill="#000000" font-family="sans-serif" font-size="37.5" font-style="italic" lengthAdjust="spacing" textLength="22.9065" x="5283.6482" y="947.9021">T</text></g><!--class Pin--><g class="entity" data-entity="Pin" data-source-line="14" data-uid="ent0005" id="entity_Pin"><rect fill="#F1F1F1" height="100" rx="7.8125" ry="7.8125" style="stroke:#181818;stroke-width:1.5625;" width="166.2659" x="2113.75" y="128.125"/><ellipse cx="2160.625" cy="178.125" fill="#ADD1B2" rx="34.375" ry="34.375" style="stroke:#181818;stroke-width:3.125;"/><path d="M2169.9023,195.752 Q2168.0957,196.6797 2166.0938,197.1191 Q2164.0918,197.6074 2161.8945,197.6074 Q2154.082,197.6074 2149.9316,192.4805 Q2145.8301,187.3047 2145.8301,177.5391 Q2145.8301,167.7734 2149.9316,162.5977 Q2154.082,157.4219 2161.8945,157.4219 Q2164.0918,157.4219 2166.0938,157.9102 Q2168.1445,158.3984 2169.9023,159.3262 L2169.9023,167.8223 Q2167.9492,166.0156 2166.0938,165.1855 Q2164.2383,164.3066 2162.2852,164.3066 Q2158.0859,164.3066 2155.9375,167.6758 Q2153.7891,170.9961 2153.7891,177.5391 Q2153.7891,184.082 2155.9375,187.4512 Q2158.0859,190.7715 2162.2852,190.7715 Q2164.2383,190.7715 2166.0938,189.9414 Q2167.9492,189.0625 2169.9023,187.2559 L2169.9023,195.752 Z " fill="#000000"/><text fill="#000000" font-family="sans-serif" font-size="43.75" lengthAdjust="spacing" textLength="66.2659" x="2204.375" y="193.2709">Pin</text></g><!--class OutputPin--><g class="entity" data-entity="OutputPin" data-source-line="16" data-uid="ent0006" id="entity_OutputPin"><rect fill="#F1F1F1" height="100" rx="7.8125" ry="7.8125" style="stroke:#181818;stroke-width:1.5625;" width="318.2373" x="2384.625" y="415.625"/><ellipse cx="2431.5" cy="465.625" fill="#ADD1B2" rx="34.375" ry="34.375" style="stroke:#181818;stroke-width:3.125;"/><path d="M2440.7773,483.252 Q2438.9707,484.1797 2436.9688,484.6191 Q2434.9668,485.1074 2432.7695,485.1074 Q2424.957,485.1074 2420.8066,479.9805 Q2416.7051,474.8047 2416.7051,465.0391 Q2416.7051,455.2734 2420.8066,450.0977 Q2424.957,444.9219 2432.7695,444.9219 Q2434.9668,444.9219 2436.9688,445.4102 Q2439.0195,445.8984 2440.7773,446.8262 L2440.7773,455.3223 Q2438.8242,453.5156 2436.9688,452.6855 Q2435.1133,451.8066 2433.1602,451.8066 Q2428.9609,451.8066 2426.8125,455.1758 Q2424.6641,458.4961 2424.6641,465.0391 Q2424.6641,471.582 2426.8125,474.9512 Q2428.9609,478.2715 2433.1602,478.2715 Q2435.1133,478.2715 2436.9688,477.4414 Q2438.8242,476.5625 2440.7773,474.7559 L2440.7773,483.252 Z " fill="#000000"/><text fill="#000000" font-family="sans-serif" font-size="43.75" lengthAdjust="spacing" textLength="218.2373" x="2475.25" y="480.7709">OutputPin</text></g><!--class InputPin--><g class="entity" data-entity="InputPin" data-source-line="18" data-uid="ent0008" id="entity_InputPin"><rect fill="#F1F1F1" height="100" rx="7.8125" ry="7.8125" style="stroke:#181818;stroke-width:1.5625;" width="279.5502" x="1994.5938" y="415.625"/><ellipse cx="2041.4688" cy="465.625" fill="#ADD1B2" rx="34.375" ry="34.375" style="stroke:#181818;stroke-width:3.125;"/><path d="M2050.7461,483.252 Q2048.9395,484.1797 2046.9375,484.6191 Q2044.9355,485.1074 2042.7383,485.1074 Q2034.9258,485.1074 2030.7754,479.9805 Q2026.6738,474.8047 2026.6738,465.0391 Q2026.6738,455.2734 2030.7754,450.0977 Q2034.9258,444.9219 2042.7383,444.9219 Q2044.9355,444.9219 2046.9375,445.4102 Q2048.9883,445.8984 2050.7461,446.8262 L2050.7461,455.3223 Q2048.793,453.5156 2046.9375,452.6855 Q2045.082,451.8066 2043.1289,451.8066 Q2038.9297,451.8066 2036.7813,455.1758 Q2034.6328,458.4961 2034.6328,465.0391 Q2034.6328,471.582 2036.7813,474.9512 Q2038.9297,478.2715 2043.1289,478.2715 Q2045.082,478.2715 2046.9375,477.4414 Q2048.793,476.5625 2050.7461,474.7559 L2050.7461,483.252 Z " fill="#000000"/><text fill="#000000" font-family="sans-serif" font-size="43.75" lengthAdjust="spacing" textLength="179.5502" x="2085.2188" y="480.7709">InputPin</text></g><!--class DigitalIn--><g class="entity" data-entity="DigitalIn" data-source-line="20" data-uid="ent0010" id="entity_DigitalIn"><rect fill="#F1F1F1" height="100" rx="7.8125" ry="7.8125" style="stroke:#181818;stroke-width:1.5625;" width="282.5195" x="1990" y="919.3437"/><ellipse cx="2036.875" cy="969.3437" fill="#ADD1B2" rx="34.375" ry="34.375" style="stroke:#181818;stroke-width:3.125;"/><path d="M2046.1523,986.9707 Q2044.3457,987.8984 2042.3437,988.3379 Q2040.3418,988.8262 2038.1445,988.8262 Q2030.332,988.8262 2026.1816,983.6992 Q2022.0801,978.5234 2022.0801,968.7578 Q2022.0801,958.9922 2026.1816,953.8164 Q2030.332,948.6406 2038.1445,948.6406 Q2040.3418,948.6406 2042.3437,949.1289 Q2044.3945,949.6172 2046.1523,950.5449 L2046.1523,959.041 Q2044.1992,957.2344 2042.3437,956.4043 Q2040.4883,955.5254 2038.5352,955.5254 Q2034.3359,955.5254 2032.1875,958.8945 Q2030.0391,962.2148 2030.0391,968.7578 Q2030.0391,975.3008 2032.1875,978.6699 Q2034.3359,981.9902 2038.5352,981.9902 Q2040.4883,981.9902 2042.3437,981.1602 Q2044.1992,980.2812 2046.1523,978.4746 L2046.1523,986.9707 Z " fill="#000000"/><text fill="#000000" font-family="sans-serif" font-size="43.75" lengthAdjust="spacing" textLength="182.5195" x="2080.625" y="984.4896">DigitalIn</text></g><!--class DigitalOut--><g class="entity" data-entity="DigitalOut" data-source-line="22" data-uid="ent0012" id="entity_DigitalOut"><rect fill="#F1F1F1" height="100" rx="7.8125" ry="7.8125" style="stroke:#181818;stroke-width:1.5625;" width="321.2067" x="2383.1563" y="919.3437"/><ellipse cx="2430.0313" cy="969.3437" fill="#ADD1B2" rx="34.375" ry="34.375" style="stroke:#181818;stroke-width:3.125;"/><path d="M2439.3086,986.9707 Q2437.502,987.8984 2435.5,988.3379 Q2433.498,988.8262 2431.3008,988.8262 Q2423.4883,988.8262 2419.3379,983.6992 Q2415.2363,978.5234 2415.2363,968.7578 Q2415.2363,958.9922 2419.3379,953.8164 Q2423.4883,948.6406 2431.3008,948.6406 Q2433.498,948.6406 2435.5,949.1289 Q2437.5508,949.6172 2439.3086,950.5449 L2439.3086,959.041 Q2437.3555,957.2344 2435.5,956.4043 Q2433.6445,955.5254 2431.6914,955.5254 Q2427.4922,955.5254 2425.3438,958.8945 Q2423.1953,962.2148 2423.1953,968.7578 Q2423.1953,975.3008 2425.3438,978.6699 Q2427.4922,981.9902 2431.6914,981.9902 Q2433.6445,981.9902 2435.5,981.1602 Q2437.3555,980.2812 2439.3086,978.4746 L2439.3086,986.9707 Z " fill="#000000"/><text fill="#000000" font-family="sans-serif" font-size="43.75" lengthAdjust="spacing" textLength="221.2067" x="2473.7813" y="984.4896">DigitalOut</text></g><!--class PinArray--><g class="entity" data-entity="PinArray" data-source-line="25" data-uid="ent0014" id="entity_PinArray"><rect fill="#F1F1F1" height="100" rx="7.8125" ry="7.8125" style="stroke:#181818;stroke-width:1.5625;" width="551.062" x="705.7188" y="415.625"/><ellipse cx="752.5938" cy="465.625" fill="#ADD1B2" rx="34.375" ry="34.375" style="stroke:#181818;stroke-width:3.125;"/><path d="M761.8711,483.252 Q760.0645,484.1797 758.0625,484.6191 Q756.0605,485.1074 753.8633,485.1074 Q746.0508,485.1074 741.9004,479.9805 Q737.7988,474.8047 737.7988,465.0391 Q737.7988,455.2734 741.9004,450.0977 Q746.0508,444.9219 753.8633,444.9219 Q756.0605,444.9219 758.0625,445.4102 Q760.1133,445.8984 761.8711,446.8262 L761.8711,455.3223 Q759.918,453.5156 758.0625,452.6855 Q756.207,451.8066 754.2539,451.8066 Q750.0547,451.8066 747.9063,455.1758 Q745.7578,458.4961 745.7578,465.0391 Q745.7578,471.582 747.9063,474.9512 Q750.0547,478.2715 754.2539,478.2715 Q756.207,478.2715 758.0625,477.4414 Q759.918,476.5625 761.8711,474.7559 L761.8711,483.252 Z " fill="#000000"/><text fill="#000000" font-family="sans-serif" font-size="43.75" lengthAdjust="spacing" textLength="184.8694" x="796.3438" y="480.7709">PinArray</text><rect fill="#FFFFFF" height="49.9023" style="stroke:#181818;stroke-width:3.125;stroke-dasharray:2.0,2.0;" width="259.9426" x="1006.2131" y="406.25"/><text fill="#000000" font-family="sans-serif" font-size="37.5" font-style="italic" lengthAdjust="spacing" textLength="253.6926" x="1009.3381" y="444.1833">T extends Pin</text></g><!--class OutputPinArray--><g class="entity" data-entity="OutputPinArray" data-source-line="27" data-uid="ent0015" id="entity_OutputPinArray"><rect fill="#F1F1F1" height="100" rx="7.8125" ry="7.8125" style="stroke:#181818;stroke-width:1.5625;" width="833.2947" x="1045.8438" y="919.3437"/><ellipse cx="1092.7188" cy="969.3437" fill="#ADD1B2" rx="34.375" ry="34.375" style="stroke:#181818;stroke-width:3.125;"/><path d="M1101.9961,986.9707 Q1100.1895,987.8984 1098.1875,988.3379 Q1096.1855,988.8262 1093.9883,988.8262 Q1086.1758,988.8262 1082.0254,983.6992 Q1077.9238,978.5234 1077.9238,968.7578 Q1077.9238,958.9922 1082.0254,953.8164 Q1086.1758,948.6406 1093.9883,948.6406 Q1096.1855,948.6406 1098.1875,949.1289 Q1100.2383,949.6172 1101.9961,950.5449 L1101.9961,959.041 Q1100.043,957.2344 1098.1875,956.4043 Q1096.332,955.5254 1094.3789,955.5254 Q1090.1797,955.5254 1088.0313,958.8945 Q1085.8828,962.2148 1085.8828,968.7578 Q1085.8828,975.3008 1088.0313,978.6699 Q1090.1797,981.9902 1094.3789,981.9902 Q1096.332,981.9902 1098.1875,981.1602 Q1100.043,980.2812 1101.9961,978.4746 L1101.9961,986.9707 Z " fill="#000000"/><text fill="#000000" font-family="sans-serif" font-size="43.75" lengthAdjust="spacing" textLength="336.8408" x="1136.4688" y="984.4896">OutputPinArray</text><rect fill="#FFFFFF" height="49.9023" style="stroke:#181818;stroke-width:3.125;stroke-dasharray:2.0,2.0;" width="390.2039" x="1498.3096" y="909.9687"/><text fill="#000000" font-family="sans-serif" font-size="37.5" font-style="italic" lengthAdjust="spacing" textLength="383.9539" x="1501.4346" y="947.9021">T extends OutputPin</text></g><!--class InputPinArrayBase--><g class="entity" data-entity="InputPinArrayBase" data-source-line="29" data-uid="ent0017" id="entity_InputPinArrayBase"><rect fill="#F1F1F1" height="100" rx="7.8125" ry="7.8125" style="stroke:#181818;stroke-width:1.5625;" width="867.981" x="69.125" y="919.3437"/><ellipse cx="116" cy="969.3437" fill="#ADD1B2" rx="34.375" ry="34.375" style="stroke:#181818;stroke-width:3.125;"/><path d="M125.2773,986.9707 Q123.4707,987.8984 121.4687,988.3379 Q119.4668,988.8262 117.2695,988.8262 Q109.457,988.8262 105.3066,983.6992 Q101.2051,978.5234 101.2051,968.7578 Q101.2051,958.9922 105.3066,953.8164 Q109.457,948.6406 117.2695,948.6406 Q119.4668,948.6406 121.4687,949.1289 Q123.5195,949.6172 125.2773,950.5449 L125.2773,959.041 Q123.3242,957.2344 121.4687,956.4043 Q119.6133,955.5254 117.6602,955.5254 Q113.4609,955.5254 111.3125,958.8945 Q109.1641,962.2148 109.1641,968.7578 Q109.1641,975.3008 111.3125,978.6699 Q113.4609,981.9902 117.6602,981.9902 Q119.6133,981.9902 121.4687,981.1602 Q123.3242,980.2812 125.2773,978.4746 L125.2773,986.9707 Z " fill="#000000"/><text fill="#000000" font-family="sans-serif" font-size="43.75" lengthAdjust="spacing" textLength="404.6875" x="159.75" y="984.4896">InputPinArrayBase</text><rect fill="#FFFFFF" height="49.9023" style="stroke:#181818;stroke-width:3.125;stroke-dasharray:2.0,2.0;" width="357.0435" x="589.4375" y="909.9687"/><text fill="#000000" font-family="sans-serif" font-size="37.5" font-style="italic" lengthAdjust="spacing" textLength="350.7935" x="592.5625" y="947.9021">T extends InputPin</text></g><!--class InputPinArrayDigitalIn--><g class="entity" data-entity="InputPinArrayDigitalIn" data-source-line="32" data-uid="ent0019" id="entity_InputPinArrayDigitalIn"><rect fill="#F1F1F1" height="100" rx="7.8125" ry="7.8125" style="stroke:#181818;stroke-width:1.5625;" width="567.099" x="794.5625" y="1423.0625"/><ellipse cx="841.4375" cy="1473.0625" fill="#ADD1B2" rx="34.375" ry="34.375" style="stroke:#181818;stroke-width:3.125;"/><path d="M850.7148,1490.6895 Q848.9082,1491.6172 846.9063,1492.0566 Q844.9043,1492.5449 842.707,1492.5449 Q834.8945,1492.5449 830.7441,1487.418 Q826.6426,1482.2422 826.6426,1472.4766 Q826.6426,1462.7109 830.7441,1457.5352 Q834.8945,1452.3594 842.707,1452.3594 Q844.9043,1452.3594 846.9063,1452.8477 Q848.957,1453.3359 850.7148,1454.2637 L850.7148,1462.7598 Q848.7617,1460.9531 846.9063,1460.123 Q845.0508,1459.2441 843.0977,1459.2441 Q838.8984,1459.2441 836.75,1462.6133 Q834.6016,1465.9336 834.6016,1472.4766 Q834.6016,1479.0195 836.75,1482.3887 Q838.8984,1485.709 843.0977,1485.709 Q845.0508,1485.709 846.9063,1484.8789 Q848.7617,1484 850.7148,1482.1934 L850.7148,1490.6895 Z " fill="#000000"/><text fill="#000000" font-family="sans-serif" font-size="43.75" lengthAdjust="spacing" textLength="298.1537" x="885.1875" y="1488.2084">InputPinArray</text><rect fill="#FFFFFF" height="49.9023" style="stroke:#181818;stroke-width:3.125;stroke-dasharray:2.0,2.0;" width="162.6953" x="1208.3412" y="1413.6875"/><text fill="#000000" font-family="sans-serif" font-size="37.5" font-style="italic" lengthAdjust="spacing" textLength="156.4453" x="1211.4662" y="1451.6208">DigitalIn</text></g><!--class PinPair--><g class="entity" data-entity="PinPair" data-source-line="34" data-uid="ent0021" id="entity_PinPair"><rect fill="#F1F1F1" height="100" rx="7.8125" ry="7.8125" style="stroke:#181818;stroke-width:1.5625;" width="249.6002" x="2453.3125" y="128.125"/><ellipse cx="2500.1875" cy="178.125" fill="#ADD1B2" rx="34.375" ry="34.375" style="stroke:#181818;stroke-width:3.125;"/><path d="M2509.4648,195.752 Q2507.6582,196.6797 2505.6563,197.1191 Q2503.6543,197.6074 2501.457,197.6074 Q2493.6445,197.6074 2489.4941,192.4805 Q2485.3926,187.3047 2485.3926,177.5391 Q2485.3926,167.7734 2489.4941,162.5977 Q2493.6445,157.4219 2501.457,157.4219 Q2503.6543,157.4219 2505.6563,157.9102 Q2507.707,158.3984 2509.4648,159.3262 L2509.4648,167.8223 Q2507.5117,166.0156 2505.6563,165.1855 Q2503.8008,164.3066 2501.8477,164.3066 Q2497.6484,164.3066 2495.5,167.6758 Q2493.3516,170.9961 2493.3516,177.5391 Q2493.3516,184.082 2495.5,187.4512 Q2497.6484,190.7715 2501.8477,190.7715 Q2503.8008,190.7715 2505.6563,189.9414 Q2507.5117,189.0625 2509.4648,187.2559 L2509.4648,195.752 Z " fill="#000000"/><text fill="#000000" font-family="sans-serif" font-size="43.75" lengthAdjust="spacing" textLength="149.6002" x="2543.9375" y="193.2709">PinPair</text></g><!--class Display--><g class="entity" data-entity="Display" data-source-line="38" data-uid="ent0022" id="entity_Display"><rect fill="#F1F1F1" height="812.0605" rx="7.8125" ry="7.8125" style="stroke:#181818;stroke-width:1.5625;" width="606.9977" x="4215.25" y="2761.0313"/><ellipse cx="4424.8356" cy="2811.0313" fill="#ADD1B2" rx="34.375" ry="34.375" style="stroke:#181818;stroke-width:3.125;"/><path d="M4434.1129,2828.6582 Q4432.3063,2829.5859 4430.3043,2830.0254 Q4428.3024,2830.5137 4426.1051,2830.5137 Q4418.2926,2830.5137 4414.1422,2825.3867 Q4410.0406,2820.2109 4410.0406,2810.4453 Q4410.0406,2800.6797 4414.1422,2795.5039 Q4418.2926,2790.3281 4426.1051,2790.3281 Q4428.3024,2790.3281 4430.3043,2790.8164 Q4432.3551,2791.3047 4434.1129,2792.2324 L4434.1129,2800.7285 Q4432.1598,2798.9219 4430.3043,2798.0918 Q4428.4489,2797.2129 4426.4957,2797.2129 Q4422.2965,2797.2129 4420.1481,2800.582 Q4417.9996,2803.9023 4417.9996,2810.4453 Q4417.9996,2816.9883 4420.1481,2820.3574 Q4422.2965,2823.6777 4426.4957,2823.6777 Q4428.4489,2823.6777 4430.3043,2822.8477 Q4432.1598,2821.9688 4434.1129,2820.1621 L4434.1129,2828.6582 Z " fill="#000000"/><text fill="#000000" font-family="sans-serif" font-size="43.75" lengthAdjust="spacing" textLength="161.264" x="4488.8981" y="2826.1771">Display</text><line style="stroke:#181818;stroke-width:1.5625;" x1="4218.375" x2="4819.1227" y1="2861.0313" y2="2861.0313"/><ellipse cx="4249.625" cy="2903.6826" fill="none" rx="9.375" ry="9.375" style="stroke:#038048;stroke-width:3.125;"/><text fill="#000000" font-family="sans-serif" font-size="43.75" lengthAdjust="spacing" text-decoration="underline" textLength="525.7477" x="4277.75" y="2914.141">static constexpr int Size</text><ellipse cx="4249.625" cy="2954.6104" fill="none" rx="9.375" ry="9.375" style="stroke:#038048;stroke-width:3.125;"/><text fill="#000000" font-family="sans-serif" font-size="43.75" lengthAdjust="spacing" textLength="199.7803" x="4277.75" y="2965.0687">Sign sign</text><ellipse cx="4249.625" cy="3005.5381" fill="none" rx="9.375" ry="9.375" style="stroke:#038048;stroke-width:3.125;"/><text fill="#000000" font-family="sans-serif" font-size="43.75" lengthAdjust="spacing" textLength="240.5396" x="4277.75" y="3015.9965">State state</text><line style="stroke:#181818;stroke-width:1.5625;" x1="4218.375" x2="4819.1227" y1="3038.8145" y2="3038.8145"/><ellipse cx="4249.625" cy="3081.4658" fill="#84BE84" rx="9.375" ry="9.375" style="stroke:#038048;stroke-width:3.125;"/><text fill="#000000" font-family="sans-serif" font-size="43.75" lengthAdjust="spacing" textLength="210.141" x="4277.75" y="3091.9242">Display();</text><ellipse cx="4249.625" cy="3132.3936" fill="#84BE84" rx="9.375" ry="9.375" style="stroke:#038048;stroke-width:3.125;"/><text fill="#000000" font-family="sans-serif" font-size="43.75" lengthAdjust="spacing" textLength="262.97" x="4277.75" y="3142.8519">void begin()</text><ellipse cx="4249.625" cy="3183.3213" fill="#84BE84" rx="9.375" ry="9.375" style="stroke:#038048;stroke-width:3.125;"/><text fill="#000000" font-family="sans-serif" font-size="43.75" lengthAdjust="spacing" textLength="296.3593" x="4277.75" y="3193.7797">void refresh()</text><ellipse cx="4249.625" cy="3234.249" fill="#84BE84" rx="9.375" ry="9.375" style="stroke:#038048;stroke-width:3.125;"/><text fill="#000000" font-family="sans-serif" font-size="43.75" lengthAdjust="spacing" textLength="439.9353" x="4277.75" y="3244.7074">void append(char c)</text><ellipse cx="4249.625" cy="3285.1768" fill="#84BE84" rx="9.375" ry="9.375" style="stroke:#038048;stroke-width:3.125;"/><text fill="#000000" font-family="sans-serif" font-size="43.75" lengthAdjust="spacing" textLength="207.4707" x="4277.75" y="3295.6351">void del()</text><ellipse cx="4249.625" cy="3336.1045" fill="#84BE84" rx="9.375" ry="9.375" style="stroke:#038048;stroke-width:3.125;"/><text fill="#000000" font-family="sans-serif" font-size="43.75" lengthAdjust="spacing" textLength="248.5504" x="4277.75" y="3346.5629">void clear()</text><ellipse cx="4249.625" cy="3387.0322" fill="#84BE84" rx="9.375" ry="9.375" style="stroke:#038048;stroke-width:3.125;"/><text fill="#000000" font-family="sans-serif" font-size="43.75" lengthAdjust="spacing" textLength="449.1852" x="4277.75" y="3397.4906">void set(int number)</text><ellipse cx="4249.625" cy="3437.96" fill="#84BE84" rx="9.375" ry="9.375" style="stroke:#038048;stroke-width:3.125;"/><text fill="#000000" font-family="sans-serif" font-size="43.75" lengthAdjust="spacing" textLength="245.517" x="4277.75" y="3448.4183">void flash()</text><ellipse cx="4249.625" cy="3488.8877" fill="#84BE84" rx="9.375" ry="9.375" style="stroke:#038048;stroke-width:3.125;"/><text fill="#000000" font-family="sans-serif" font-size="43.75" lengthAdjust="spacing" textLength="248.2727" x="4277.75" y="3499.3461">void error()</text><ellipse cx="4249.625" cy="3539.8154" fill="#84BE84" rx="9.375" ry="9.375" style="stroke:#038048;stroke-width:3.125;"/><text fill="#000000" font-family="sans-serif" font-size="43.75" lengthAdjust="spacing" textLength="232.0587" x="4277.75" y="3550.2738">~Display()</text></g><!--class State--><g class="entity" data-entity="State" data-source-line="54" data-uid="ent0023" id="entity_State"><rect fill="#F1F1F1" height="277.7832" rx="7.8125" ry="7.8125" style="stroke:#181818;stroke-width:1.5625;" width="215.8051" x="2867.0938" y="2003.1562"/><ellipse cx="2913.9688" cy="2053.1562" fill="#EB937F" rx="34.375" ry="34.375" style="stroke:#181818;stroke-width:3.125;"/><path d="M2926.8105,2071.9062 L2902.6895,2071.9062 L2902.6895,2033.1855 L2926.8105,2033.1855 L2926.8105,2039.9238 L2910.3555,2039.9238 L2910.3555,2048.2734 L2925.248,2048.2734 L2925.248,2055.0117 L2910.3555,2055.0117 L2910.3555,2065.168 L2926.8105,2065.168 L2926.8105,2071.9062 Z " fill="#000000"/><text fill="#000000" font-family="sans-serif" font-size="43.75" lengthAdjust="spacing" textLength="115.8051" x="2957.7188" y="2068.3021">State</text><line style="stroke:#181818;stroke-width:1.5625;" x1="2870.2188" x2="3079.7738" y1="2103.1562" y2="2103.1562"/><text fill="#000000" font-family="sans-serif" font-size="43.75" lengthAdjust="spacing" textLength="115.3992" x="2885.8438" y="2156.266">CALC</text><text fill="#000000" font-family="sans-serif" font-size="43.75" lengthAdjust="spacing" textLength="168.9331" x="2885.8438" y="2207.1937">RESULT</text><text fill="#000000" font-family="sans-serif" font-size="43.75" lengthAdjust="spacing" textLength="153.2745" x="2885.8438" y="2258.1215">ERROR</text></g><!--class Sign--><g class="entity" data-entity="Sign" data-source-line="60" data-uid="ent0024" id="entity_Sign"><rect fill="#F1F1F1" height="226.8555" rx="7.8125" ry="7.8125" style="stroke:#181818;stroke-width:1.5625;" width="258.8989" x="5773.6875" y="2028.625"/><ellipse cx="5849.1256" cy="2078.625" fill="#EB937F" rx="34.375" ry="34.375" style="stroke:#181818;stroke-width:3.125;"/><path d="M5861.9674,2097.375 L5837.8463,2097.375 L5837.8463,2058.6543 L5861.9674,2058.6543 L5861.9674,2065.3926 L5845.5123,2065.3926 L5845.5123,2073.7422 L5860.4049,2073.7422 L5860.4049,2080.4805 L5845.5123,2080.4805 L5845.5123,2090.6367 L5861.9674,2090.6367 L5861.9674,2097.375 Z " fill="#000000"/><text fill="#000000" font-family="sans-serif" font-size="43.75" lengthAdjust="spacing" textLength="95.4254" x="5899.2229" y="2093.7709">Sign</text><line style="stroke:#181818;stroke-width:1.5625;" x1="5776.8125" x2="6029.4614" y1="2128.625" y2="2128.625"/><text fill="#000000" font-family="sans-serif" font-size="43.75" lengthAdjust="spacing" textLength="198.6908" x="5792.4375" y="2181.7347">POSITIVE</text><text fill="#000000" font-family="sans-serif" font-size="43.75" lengthAdjust="spacing" textLength="221.3989" x="5792.4375" y="2232.6625">NEGATIVE</text></g><!--class Action--><g class="entity" data-entity="Action" data-source-line="65" data-uid="ent0025" id="entity_Action"><rect fill="#F1F1F1" height="100" rx="7.8125" ry="7.8125" style="stroke:#181818;stroke-width:1.5625;" width="237.7869" x="1981.0938" y="3117.0625"/><ellipse cx="2027.9688" cy="3167.0625" fill="#ADD1B2" rx="34.375" ry="34.375" style="stroke:#181818;stroke-width:3.125;"/><path d="M2037.2461,3184.6895 Q2035.4395,3185.6172 2033.4375,3186.0566 Q2031.4355,3186.5449 2029.2383,3186.5449 Q2021.4258,3186.5449 2017.2754,3181.418 Q2013.1738,3176.2422 2013.1738,3166.4766 Q2013.1738,3156.7109 2017.2754,3151.5352 Q2021.4258,3146.3594 2029.2383,3146.3594 Q2031.4355,3146.3594 2033.4375,3146.8477 Q2035.4883,3147.3359 2037.2461,3148.2637 L2037.2461,3156.7598 Q2035.293,3154.9531 2033.4375,3154.123 Q2031.582,3153.2441 2029.6289,3153.2441 Q2025.4297,3153.2441 2023.2813,3156.6133 Q2021.1328,3159.9336 2021.1328,3166.4766 Q2021.1328,3173.0195 2023.2813,3176.3887 Q2025.4297,3179.709 2029.6289,3179.709 Q2031.582,3179.709 2033.4375,3178.8789 Q2035.293,3178 2037.2461,3176.1934 L2037.2461,3184.6895 Z " fill="#000000"/><text fill="#000000" font-family="sans-serif" font-size="43.75" lengthAdjust="spacing" textLength="137.7869" x="2071.7188" y="3182.2084">Action</text></g><!--class Actions--><g class="entity" data-entity="Actions" data-source-line="67" data-uid="ent0026" id="entity_Actions"><rect fill="#F1F1F1" height="100" rx="7.8125" ry="7.8125" style="stroke:#181818;stroke-width:1.5625;" width="260.5804" x="1929.0937" y="3760.5937"/><ellipse cx="1975.9687" cy="3810.5937" fill="#ADD1B2" rx="34.375" ry="34.375" style="stroke:#181818;stroke-width:3.125;"/><path d="M1985.2461,3828.2207 Q1983.4395,3829.1484 1981.4375,3829.5879 Q1979.4355,3830.0762 1977.2383,3830.0762 Q1969.4258,3830.0762 1965.2754,3824.9492 Q1961.1738,3819.7734 1961.1738,3810.0078 Q1961.1738,3800.2422 1965.2754,3795.0664 Q1969.4258,3789.8906 1977.2383,3789.8906 Q1979.4355,3789.8906 1981.4375,3790.3789 Q1983.4883,3790.8672 1985.2461,3791.7949 L1985.2461,3800.291 Q1983.293,3798.4844 1981.4375,3797.6543 Q1979.582,3796.7754 1977.6289,3796.7754 Q1973.4297,3796.7754 1971.2812,3800.1445 Q1969.1328,3803.4648 1969.1328,3810.0078 Q1969.1328,3816.5508 1971.2812,3819.9199 Q1973.4297,3823.2402 1977.6289,3823.2402 Q1979.582,3823.2402 1981.4375,3822.4102 Q1983.293,3821.5312 1985.2461,3819.7246 L1985.2461,3828.2207 Z " fill="#000000"/><text fill="#000000" font-family="sans-serif" font-size="43.75" lengthAdjust="spacing" textLength="160.5804" x="2019.7187" y="3825.7396">Actions</text></g><!--class ActionTypes--><g class="entity" data-entity="ActionTypes" data-source-line="69" data-uid="ent0027" id="entity_ActionTypes"><rect fill="#F1F1F1" height="277.7832" rx="7.8125" ry="7.8125" style="stroke:#181818;stroke-width:1.5625;" width="367.8833" x="1916.0625" y="2003.1562"/><ellipse cx="1962.9375" cy="2053.1562" fill="#EB937F" rx="34.375" ry="34.375" style="stroke:#181818;stroke-width:3.125;"/><path d="M1975.7793,2071.9062 L1951.6582,2071.9062 L1951.6582,2033.1855 L1975.7793,2033.1855 L1975.7793,2039.9238 L1959.3242,2039.9238 L1959.3242,2048.2734 L1974.2168,2048.2734 L1974.2168,2055.0117 L1959.3242,2055.0117 L1959.3242,2065.168 L1975.7793,2065.168 L1975.7793,2071.9062 Z " fill="#000000"/><text fill="#000000" font-family="sans-serif" font-size="43.75" lengthAdjust="spacing" textLength="267.8833" x="2006.6875" y="2068.3021">ActionTypes</text><line style="stroke:#181818;stroke-width:1.5625;" x1="1919.1875" x2="2280.8208" y1="2103.1562" y2="2103.1562"/><text fill="#000000" font-family="sans-serif" font-size="43.75" lengthAdjust="spacing" textLength="140.1794" x="1934.8125" y="2156.266">RESET</text><text fill="#000000" font-family="sans-serif" font-size="43.75" lengthAdjust="spacing" textLength="85.7056" x="1934.8125" y="2207.1937">DEL</text><text fill="#000000" font-family="sans-serif" font-size="43.75" lengthAdjust="spacing" textLength="256.0913" x="1934.8125" y="2258.1215">CALCULATE</text></g><!--class Operation--><g class="entity" data-entity="Operation" data-source-line="76" data-uid="ent0028" id="entity_Operation"><rect fill="#F1F1F1" height="100" rx="7.8125" ry="7.8125" style="stroke:#181818;stroke-width:1.5625;" width="317.7246" x="4931.75" y="3117.0625"/><ellipse cx="4978.625" cy="3167.0625" fill="#ADD1B2" rx="34.375" ry="34.375" style="stroke:#181818;stroke-width:3.125;"/><path d="M4987.9023,3184.6895 Q4986.0957,3185.6172 4984.0938,3186.0566 Q4982.0918,3186.5449 4979.8945,3186.5449 Q4972.082,3186.5449 4967.9316,3181.418 Q4963.8301,3176.2422 4963.8301,3166.4766 Q4963.8301,3156.7109 4967.9316,3151.5352 Q4972.082,3146.3594 4979.8945,3146.3594 Q4982.0918,3146.3594 4984.0938,3146.8477 Q4986.1445,3147.3359 4987.9023,3148.2637 L4987.9023,3156.7598 Q4985.9492,3154.9531 4984.0938,3154.123 Q4982.2383,3153.2441 4980.2852,3153.2441 Q4976.0859,3153.2441 4973.9375,3156.6133 Q4971.7891,3159.9336 4971.7891,3166.4766 Q4971.7891,3173.0195 4973.9375,3176.3887 Q4976.0859,3179.709 4980.2852,3179.709 Q4982.2383,3179.709 4984.0938,3178.8789 Q4985.9492,3178 4987.9023,3176.1934 L4987.9023,3184.6895 Z " fill="#000000"/><text fill="#000000" font-family="sans-serif" font-size="43.75" lengthAdjust="spacing" textLength="217.7246" x="5022.375" y="3182.2084">Operation</text></g><!--class Operations--><g class="entity" data-entity="Operations" data-source-line="78" data-uid="ent0029" id="entity_Operations"><rect fill="#F1F1F1" height="100" rx="7.8125" ry="7.8125" style="stroke:#181818;stroke-width:1.5625;" width="340.5182" x="4920.375" y="3760.5937"/><ellipse cx="4967.25" cy="3810.5937" fill="#ADD1B2" rx="34.375" ry="34.375" style="stroke:#181818;stroke-width:3.125;"/><path d="M4976.5273,3828.2207 Q4974.7207,3829.1484 4972.7188,3829.5879 Q4970.7168,3830.0762 4968.5195,3830.0762 Q4960.707,3830.0762 4956.5566,3824.9492 Q4952.4551,3819.7734 4952.4551,3810.0078 Q4952.4551,3800.2422 4956.5566,3795.0664 Q4960.707,3789.8906 4968.5195,3789.8906 Q4970.7168,3789.8906 4972.7188,3790.3789 Q4974.7695,3790.8672 4976.5273,3791.7949 L4976.5273,3800.291 Q4974.5742,3798.4844 4972.7188,3797.6543 Q4970.8633,3796.7754 4968.9102,3796.7754 Q4964.7109,3796.7754 4962.5625,3800.1445 Q4960.4141,3803.4648 4960.4141,3810.0078 Q4960.4141,3816.5508 4962.5625,3819.9199 Q4964.7109,3823.2402 4968.9102,3823.2402 Q4970.8633,3823.2402 4972.7188,3822.4102 Q4974.5742,3821.5312 4976.5273,3819.7246 L4976.5273,3828.2207 Z " fill="#000000"/><text fill="#000000" font-family="sans-serif" font-size="43.75" lengthAdjust="spacing" textLength="240.5182" x="5011" y="3825.7396">Operations</text></g><!--class OperationTypes--><g class="entity" data-entity="OperationTypes" data-source-line="80" data-uid="ent0030" id="entity_OperationTypes"><rect fill="#F1F1F1" height="379.6387" rx="7.8125" ry="7.8125" style="stroke:#181818;stroke-width:1.5625;" width="447.821" x="6141.7188" y="1952.2187"/><ellipse cx="6188.5938" cy="2002.2187" fill="#EB937F" rx="34.375" ry="34.375" style="stroke:#181818;stroke-width:3.125;"/><path d="M6201.4355,2020.9687 L6177.3145,2020.9687 L6177.3145,1982.248 L6201.4355,1982.248 L6201.4355,1988.9863 L6184.9805,1988.9863 L6184.9805,1997.3359 L6199.873,1997.3359 L6199.873,2004.0742 L6184.9805,2004.0742 L6184.9805,2014.2305 L6201.4355,2014.2305 L6201.4355,2020.9687 Z " fill="#000000"/><text fill="#000000" font-family="sans-serif" font-size="43.75" lengthAdjust="spacing" textLength="347.821" x="6232.3438" y="2017.3646">OperationTypes</text><line style="stroke:#181818;stroke-width:1.5625;" x1="6144.8438" x2="6586.4148" y1="2052.2187" y2="2052.2187"/><text fill="#000000" font-family="sans-serif" font-size="43.75" lengthAdjust="spacing" textLength="216.9983" x="6160.4688" y="2105.3285">ADDITION</text><text fill="#000000" font-family="sans-serif" font-size="43.75" lengthAdjust="spacing" textLength="314.1968" x="6160.4688" y="2156.2562">SUBTRACTION</text><text fill="#000000" font-family="sans-serif" font-size="43.75" lengthAdjust="spacing" textLength="364.6973" x="6160.4688" y="2207.184">MULTIPLICATION</text><text fill="#000000" font-family="sans-serif" font-size="43.75" lengthAdjust="spacing" textLength="197.2595" x="6160.4688" y="2258.1117">DIVISION</text><text fill="#000000" font-family="sans-serif" font-size="43.75" lengthAdjust="spacing" textLength="107.3029" x="6160.4688" y="2309.0394">SIGN</text></g><!--class Segments--><g class="entity" data-entity="Segments" data-source-line="89" data-uid="ent0031" id="entity_Segments"><rect fill="#F1F1F1" height="532.4219" rx="7.8125" ry="7.8125" style="stroke:#181818;stroke-width:1.5625;" width="386.2823" x="5409.9688" y="703.125"/><ellipse cx="5486.8199" cy="753.125" fill="#EB937F" rx="34.375" ry="34.375" style="stroke:#181818;stroke-width:3.125;"/><path d="M5499.6617,771.875 L5475.5406,771.875 L5475.5406,733.1543 L5499.6617,733.1543 L5499.6617,739.8926 L5483.2067,739.8926 L5483.2067,748.2422 L5498.0992,748.2422 L5498.0992,754.9805 L5483.2067,754.9805 L5483.2067,765.1367 L5499.6617,765.1367 L5499.6617,771.875 Z " fill="#000000"/><text fill="#000000" font-family="sans-serif" font-size="43.75" lengthAdjust="spacing" textLength="219.6686" x="5537.2313" y="768.2709">Segments</text><line style="stroke:#181818;stroke-width:1.5625;" x1="5413.0938" x2="5793.1261" y1="803.125" y2="803.125"/><text fill="#000000" font-family="sans-serif" font-size="43.75" lengthAdjust="spacing" textLength="170.0439" x="5428.7188" y="856.2347">MIDDLE</text><text fill="#000000" font-family="sans-serif" font-size="43.75" lengthAdjust="spacing" textLength="213.324" x="5428.7188" y="907.1625">LEFT_TOP</text><text fill="#000000" font-family="sans-serif" font-size="43.75" lengthAdjust="spacing" textLength="87.5427" x="5428.7188" y="958.0902">TOP</text><text fill="#000000" font-family="sans-serif" font-size="43.75" lengthAdjust="spacing" textLength="246.2433" x="5428.7188" y="1009.0179">RIGHT_TOP</text><text fill="#000000" font-family="sans-serif" font-size="43.75" lengthAdjust="spacing" textLength="315.863" x="5428.7188" y="1059.9457">LEFT_BOTTOM</text><text fill="#000000" font-family="sans-serif" font-size="43.75" lengthAdjust="spacing" textLength="190.0818" x="5428.7188" y="1110.8734">BOTTOM</text><text fill="#000000" font-family="sans-serif" font-size="43.75" lengthAdjust="spacing" textLength="348.7823" x="5428.7188" y="1161.8011">RIGHT_BOTTOM</text><text fill="#000000" font-family="sans-serif" font-size="43.75" lengthAdjust="spacing" textLength="133.1726" x="5428.7188" y="1212.7289">POINT</text></g><!--class VariadicAggregationSegment--><g class="entity" data-entity="VariadicAggregationSegment" data-source-line="100" data-uid="ent0032" id="entity_VariadicAggregationSegment"><rect fill="#F1F1F1" height="100" rx="7.8125" ry="7.8125" style="stroke:#181818;stroke-width:1.5625;" width="727.6794" x="4683.0313" y="1423.0625"/><ellipse cx="4729.9063" cy="1473.0625" fill="#ADD1B2" rx="34.375" ry="34.375" style="stroke:#181818;stroke-width:3.125;"/><path d="M4739.1836,1490.6895 Q4737.377,1491.6172 4735.375,1492.0566 Q4733.373,1492.5449 4731.1758,1492.5449 Q4723.3633,1492.5449 4719.2129,1487.418 Q4715.1113,1482.2422 4715.1113,1472.4766 Q4715.1113,1462.7109 4719.2129,1457.5352 Q4723.3633,1452.3594 4731.1758,1452.3594 Q4733.373,1452.3594 4735.375,1452.8477 Q4737.4258,1453.3359 4739.1836,1454.2637 L4739.1836,1462.7598 Q4737.2305,1460.9531 4735.375,1460.123 Q4733.5195,1459.2441 4731.5664,1459.2441 Q4727.3672,1459.2441 4725.2188,1462.6133 Q4723.0703,1465.9336 4723.0703,1472.4766 Q4723.0703,1479.0195 4725.2188,1482.3887 Q4727.3672,1485.709 4731.5664,1485.709 Q4733.5195,1485.709 4735.375,1484.8789 Q4737.2305,1484 4739.1836,1482.1934 L4739.1836,1490.6895 Z " fill="#000000"/><text fill="#000000" font-family="sans-serif" font-size="43.75" lengthAdjust="spacing" textLength="446.4294" x="4773.6563" y="1488.2084">VariadicAggregation</text><rect fill="#FFFFFF" height="49.9023" style="stroke:#181818;stroke-width:3.125;stroke-dasharray:2.0,2.0;" width="175" x="5245.0857" y="1413.6875"/><text fill="#000000" font-family="sans-serif" font-size="37.5" font-style="italic" lengthAdjust="spacing" textLength="168.75" x="5248.2107" y="1451.6208">Segment</text></g><!--class Symbols--><g class="entity" data-entity="Symbols" data-source-line="102" data-uid="ent0034" id="entity_Symbols"><rect fill="#F1F1F1" height="100" rx="7.8125" ry="7.8125" style="stroke:#181818;stroke-width:1.5625;" width="285.7666" x="4685.25" y="2092.0625"/><ellipse cx="4732.125" cy="2142.0625" fill="#ADD1B2" rx="34.375" ry="34.375" style="stroke:#181818;stroke-width:3.125;"/><path d="M4741.4023,2159.6895 Q4739.5957,2160.6172 4737.5938,2161.0566 Q4735.5918,2161.5449 4733.3945,2161.5449 Q4725.582,2161.5449 4721.4316,2156.418 Q4717.3301,2151.2422 4717.3301,2141.4766 Q4717.3301,2131.7109 4721.4316,2126.5352 Q4725.582,2121.3594 4733.3945,2121.3594 Q4735.5918,2121.3594 4737.5938,2121.8477 Q4739.6445,2122.3359 4741.4023,2123.2637 L4741.4023,2131.7598 Q4739.4492,2129.9531 4737.5938,2129.123 Q4735.7383,2128.2441 4733.7852,2128.2441 Q4729.5859,2128.2441 4727.4375,2131.6133 Q4725.2891,2134.9336 4725.2891,2141.4766 Q4725.2891,2148.0195 4727.4375,2151.3887 Q4729.5859,2154.709 4733.7852,2154.709 Q4735.7383,2154.709 4737.5938,2153.8789 Q4739.4492,2153 4741.4023,2151.1934 L4741.4023,2159.6895 Z " fill="#000000"/><text fill="#000000" font-family="sans-serif" font-size="43.75" lengthAdjust="spacing" textLength="185.7666" x="4775.875" y="2157.2084">Symbols</text></g><!--class Value--><g class="entity" data-entity="Value" data-source-line="104" data-uid="ent0036" id="entity_Value"><rect fill="#F1F1F1" height="100" rx="7.8125" ry="7.8125" style="stroke:#181818;stroke-width:1.5625;" width="223.5382" x="3444.4688" y="1423.0625"/><ellipse cx="3491.3438" cy="1473.0625" fill="#ADD1B2" rx="34.375" ry="34.375" style="stroke:#181818;stroke-width:3.125;"/><path d="M3500.6211,1490.6895 Q3498.8145,1491.6172 3496.8125,1492.0566 Q3494.8105,1492.5449 3492.6133,1492.5449 Q3484.8008,1492.5449 3480.6504,1487.418 Q3476.5488,1482.2422 3476.5488,1472.4766 Q3476.5488,1462.7109 3480.6504,1457.5352 Q3484.8008,1452.3594 3492.6133,1452.3594 Q3494.8105,1452.3594 3496.8125,1452.8477 Q3498.8633,1453.3359 3500.6211,1454.2637 L3500.6211,1462.7598 Q3498.668,1460.9531 3496.8125,1460.123 Q3494.957,1459.2441 3493.0039,1459.2441 Q3488.8047,1459.2441 3486.6563,1462.6133 Q3484.5078,1465.9336 3484.5078,1472.4766 Q3484.5078,1479.0195 3486.6563,1482.3887 Q3488.8047,1485.709 3493.0039,1485.709 Q3494.957,1485.709 3496.8125,1484.8789 Q3498.668,1484 3500.6211,1482.1934 L3500.6211,1490.6895 Z " fill="#000000"/><text fill="#000000" font-family="sans-serif" font-size="43.75" lengthAdjust="spacing" textLength="123.5382" x="3535.0938" y="1488.2084">Value</text></g><!--class Calculator--><g class="entity" data-entity="Calculator" data-source-line="106" data-uid="ent0037" id="entity_Calculator"><rect fill="#F1F1F1" height="862.9883" rx="7.8125" ry="7.8125" style="stroke:#181818;stroke-width:1.5625;" width="938.2416" x="3415.25" y="1710.5625"/><ellipse cx="3760.0056" cy="1760.5625" fill="#ADD1B2" rx="34.375" ry="34.375" style="stroke:#181818;stroke-width:3.125;"/><path d="M3769.2829,1778.1895 Q3767.4763,1779.1172 3765.4743,1779.5566 Q3763.4724,1780.0449 3761.2751,1780.0449 Q3753.4626,1780.0449 3749.3122,1774.918 Q3745.2106,1769.7422 3745.2106,1759.9766 Q3745.2106,1750.2109 3749.3122,1745.0352 Q3753.4626,1739.8594 3761.2751,1739.8594 Q3763.4724,1739.8594 3765.4743,1740.3477 Q3767.5251,1740.8359 3769.2829,1741.7637 L3769.2829,1750.2598 Q3767.3298,1748.4531 3765.4743,1747.623 Q3763.6188,1746.7441 3761.6657,1746.7441 Q3757.4665,1746.7441 3755.3181,1750.1133 Q3753.1696,1753.4336 3753.1696,1759.9766 Q3753.1696,1766.5195 3755.3181,1769.8887 Q3757.4665,1773.209 3761.6657,1773.209 Q3763.6188,1773.209 3765.4743,1772.3789 Q3767.3298,1771.5 3769.2829,1769.6934 L3769.2829,1778.1895 Z " fill="#000000"/><text fill="#000000" font-family="sans-serif" font-size="43.75" lengthAdjust="spacing" textLength="222.168" x="3824.0681" y="1775.7084">Calculator</text><line style="stroke:#181818;stroke-width:1.5625;" x1="3418.375" x2="4350.3666" y1="1810.5625" y2="1810.5625"/><ellipse cx="3449.625" cy="1853.2139" fill="none" rx="9.375" ry="9.375" style="stroke:#038048;stroke-width:3.125;"/><text fill="#000000" font-family="sans-serif" font-size="43.75" lengthAdjust="spacing" textLength="352.3926" x="3477.75" y="1863.6722">Display* display</text><ellipse cx="3449.625" cy="1904.1416" fill="none" rx="9.375" ry="9.375" style="stroke:#038048;stroke-width:3.125;"/><text fill="#000000" font-family="sans-serif" font-size="43.75" lengthAdjust="spacing" textLength="276.3641" x="3477.75" y="1914.6">Value memo</text><ellipse cx="3449.625" cy="1955.0693" fill="none" rx="9.375" ry="9.375" style="stroke:#038048;stroke-width:3.125;"/><text fill="#000000" font-family="sans-serif" font-size="43.75" lengthAdjust="spacing" textLength="256.9458" x="3477.75" y="1965.5277">Value value</text><ellipse cx="3449.625" cy="2005.9971" fill="none" rx="9.375" ry="9.375" style="stroke:#038048;stroke-width:3.125;"/><text fill="#000000" font-family="sans-serif" font-size="43.75" lengthAdjust="spacing" textLength="736.615" x="3477.75" y="2016.4554">const Operation* activeOperation</text><ellipse cx="3449.625" cy="2056.9248" fill="none" rx="9.375" ry="9.375" style="stroke:#038048;stroke-width:3.125;"/><text fill="#000000" font-family="sans-serif" font-size="43.75" lengthAdjust="spacing" textLength="820.3339" x="3477.75" y="2067.3832">const OperationAction* lastOperation</text><ellipse cx="3449.625" cy="2107.8525" fill="none" rx="9.375" ry="9.375" style="stroke:#038048;stroke-width:3.125;"/><text fill="#000000" font-family="sans-serif" font-size="43.75" lengthAdjust="spacing" textLength="205.0568" x="3477.75" y="2118.3109">bool next</text><line style="stroke:#181818;stroke-width:1.5625;" x1="3418.375" x2="4350.3666" y1="2141.1289" y2="2141.1289"/><ellipse cx="3449.625" cy="2183.7803" fill="#84BE84" rx="9.375" ry="9.375" style="stroke:#038048;stroke-width:3.125;"/><text fill="#000000" font-family="sans-serif" font-size="43.75" lengthAdjust="spacing" textLength="608.6975" x="3477.75" y="2194.2386">Calculator(Display* display)</text><ellipse cx="3449.625" cy="2234.708" fill="#84BE84" rx="9.375" ry="9.375" style="stroke:#038048;stroke-width:3.125;"/><text fill="#000000" font-family="sans-serif" font-size="43.75" lengthAdjust="spacing" textLength="349.295" x="3477.75" y="2245.1664">void write(int n)</text><ellipse cx="3449.625" cy="2285.6357" fill="#84BE84" rx="9.375" ry="9.375" style="stroke:#038048;stroke-width:3.125;"/><text fill="#000000" font-family="sans-serif" font-size="43.75" lengthAdjust="spacing" textLength="207.4707" x="3477.75" y="2296.0941">void del()</text><ellipse cx="3449.625" cy="2336.5635" fill="#84BE84" rx="9.375" ry="9.375" style="stroke:#038048;stroke-width:3.125;"/><text fill="#000000" font-family="sans-serif" font-size="43.75" lengthAdjust="spacing" textLength="248.5504" x="3477.75" y="2347.0219">void clear()</text><ellipse cx="3449.625" cy="2387.4912" fill="#84BE84" rx="9.375" ry="9.375" style="stroke:#038048;stroke-width:3.125;"/><text fill="#000000" font-family="sans-serif" font-size="43.75" lengthAdjust="spacing" textLength="252.3956" x="3477.75" y="2397.9496">void reset()</text><ellipse cx="3449.625" cy="2438.4189" fill="#84BE84" rx="9.375" ry="9.375" style="stroke:#038048;stroke-width:3.125;"/><text fill="#000000" font-family="sans-serif" font-size="43.75" lengthAdjust="spacing" textLength="856.9916" x="3477.75" y="2448.8773">void apply(const Operation* operation)</text><ellipse cx="3449.625" cy="2489.3467" fill="#84BE84" rx="9.375" ry="9.375" style="stroke:#038048;stroke-width:3.125;"/><text fill="#000000" font-family="sans-serif" font-size="43.75" lengthAdjust="spacing" textLength="338.4644" x="3477.75" y="2499.8051">void calculate()</text><ellipse cx="3449.625" cy="2540.2744" fill="#84BE84" rx="9.375" ry="9.375" style="stroke:#038048;stroke-width:3.125;"/><text fill="#000000" font-family="sans-serif" font-size="43.75" lengthAdjust="spacing" textLength="374.588" x="3477.75" y="2550.7328">void toggleSign()</text></g><!--class OperationAction--><g class="entity" data-entity="OperationAction" data-source-line="123" data-uid="ent0038" id="entity_OperationAction"><rect fill="#F1F1F1" height="100" rx="7.8125" ry="7.8125" style="stroke:#181818;stroke-width:1.5625;" width="455.5115" x="3778.5" y="1423.0625"/><ellipse cx="3825.375" cy="1473.0625" fill="#ADD1B2" rx="34.375" ry="34.375" style="stroke:#181818;stroke-width:3.125;"/><path d="M3834.6523,1490.6895 Q3832.8457,1491.6172 3830.8437,1492.0566 Q3828.8418,1492.5449 3826.6445,1492.5449 Q3818.832,1492.5449 3814.6816,1487.418 Q3810.5801,1482.2422 3810.5801,1472.4766 Q3810.5801,1462.7109 3814.6816,1457.5352 Q3818.832,1452.3594 3826.6445,1452.3594 Q3828.8418,1452.3594 3830.8437,1452.8477 Q3832.8945,1453.3359 3834.6523,1454.2637 L3834.6523,1462.7598 Q3832.6992,1460.9531 3830.8437,1460.123 Q3828.9883,1459.2441 3827.0352,1459.2441 Q3822.8359,1459.2441 3820.6875,1462.6133 Q3818.5391,1465.9336 3818.5391,1472.4766 Q3818.5391,1479.0195 3820.6875,1482.3887 Q3822.8359,1485.709 3827.0352,1485.709 Q3828.9883,1485.709 3830.8437,1484.8789 Q3832.6992,1484 3834.6523,1482.1934 L3834.6523,1490.6895 Z " fill="#000000"/><text fill="#000000" font-family="sans-serif" font-size="43.75" lengthAdjust="spacing" textLength="355.5115" x="3869.125" y="1488.2084">OperationAction</text></g><!--class Type--><g class="entity" data-entity="Type" data-source-line="125" data-uid="ent0039" id="entity_Type"><rect fill="#F1F1F1" height="328.7109" rx="7.8125" ry="7.8125" style="stroke:#181818;stroke-width:1.5625;" width="293.0786" x="2328.4688" y="3002.7187"/><ellipse cx="2413.9428" cy="3052.7187" fill="#EB937F" rx="34.375" ry="34.375" style="stroke:#181818;stroke-width:3.125;"/><path d="M2426.7846,3071.4687 L2402.6635,3071.4687 L2402.6635,3032.748 L2426.7846,3032.748 L2426.7846,3039.4863 L2410.3296,3039.4863 L2410.3296,3047.8359 L2425.2221,3047.8359 L2425.2221,3054.5742 L2410.3296,3054.5742 L2410.3296,3064.7305 L2426.7846,3064.7305 L2426.7846,3071.4687 Z " fill="#000000"/><text fill="#000000" font-family="sans-serif" font-size="43.75" lengthAdjust="spacing" textLength="107.3029" x="2466.2704" y="3067.8646">Type</text><line style="stroke:#181818;stroke-width:1.5625;" x1="2331.5938" x2="2618.4224" y1="3102.7187" y2="3102.7187"/><text fill="#000000" font-family="sans-serif" font-size="43.75" lengthAdjust="spacing" textLength="255.5786" x="2347.2188" y="3155.8285">OPERATION</text><text fill="#000000" font-family="sans-serif" font-size="43.75" lengthAdjust="spacing" textLength="167.2668" x="2347.2188" y="3206.7562">ACTION</text><text fill="#000000" font-family="sans-serif" font-size="43.75" lengthAdjust="spacing" textLength="190.5518" x="2347.2188" y="3257.684">NUMBER</text><text fill="#000000" font-family="sans-serif" font-size="43.75" lengthAdjust="spacing" textLength="127.533" x="2347.2188" y="3308.6117">NONE</text></g><!--class ButtonInfo--><g class="entity" data-entity="ButtonInfo" data-source-line="132" data-uid="ent0040" id="entity_ButtonInfo"><rect fill="#F1F1F1" height="100" rx="7.8125" ry="7.8125" style="stroke:#181818;stroke-width:1.5625;" width="329.3457" x="2297.8125" y="3760.5937"/><ellipse cx="2344.6875" cy="3810.5937" fill="#F1F1F1" rx="34.375" ry="34.375" style="stroke:#181818;stroke-width:3.125;"/><path d="M2343.0762,3812.3516 Q2337.2656,3810.1543 2335.2148,3807.7617 Q2333.2129,3805.3203 2333.2129,3801.2187 Q2333.2129,3795.9453 2336.582,3792.918 Q2339.9512,3789.8906 2345.8105,3789.8906 Q2348.4961,3789.8906 2351.1328,3790.5254 Q2353.8184,3791.1113 2356.4551,3792.332 L2356.4551,3799.8027 Q2354.0137,3798.0449 2351.4258,3797.166 Q2348.8867,3796.2383 2346.3965,3796.2383 Q2343.6621,3796.2383 2342.1484,3797.3613 Q2340.6836,3798.4844 2340.6836,3800.5352 Q2340.6836,3802.1465 2341.7578,3803.2207 Q2342.832,3804.2461 2346.25,3805.5156 L2349.5703,3806.7852 Q2354.209,3808.4941 2356.4063,3811.3262 Q2358.6523,3814.1582 2358.6523,3818.4551 Q2358.6523,3824.3145 2355.1855,3827.1953 Q2351.7188,3830.0762 2344.6875,3830.0762 Q2341.8066,3830.0762 2338.9258,3829.3926 Q2336.0449,3828.709 2333.3594,3827.3906 L2333.3594,3819.4805 Q2336.3867,3821.6289 2339.2676,3822.7031 Q2342.1484,3823.7773 2344.9316,3823.7773 Q2347.7637,3823.7773 2349.3262,3822.5078 Q2350.8887,3821.1895 2350.8887,3818.8945 Q2350.8887,3817.1367 2349.8145,3815.8672 Q2348.7891,3814.5488 2346.8359,3813.7676 L2343.0762,3812.3516 Z " fill="#000000"/><text fill="#000000" font-family="sans-serif" font-size="43.75" lengthAdjust="spacing" textLength="229.3457" x="2388.4375" y="3825.7396">ButtonInfo</text></g><!--class Button--><g class="entity" data-entity="Button" data-source-line="134" data-uid="ent0041" id="entity_Button"><rect fill="#F1F1F1" height="100" rx="7.8125" ry="7.8125" style="stroke:#181818;stroke-width:1.5625;" width="246.5454" x="1339.2188" y="4048.0937"/><ellipse cx="1386.0938" cy="4098.0938" fill="#ADD1B2" rx="34.375" ry="34.375" style="stroke:#181818;stroke-width:3.125;"/><path d="M1395.3711,4115.7207 Q1393.5645,4116.6484 1391.5625,4117.0879 Q1389.5605,4117.5762 1387.3633,4117.5762 Q1379.5508,4117.5762 1375.4004,4112.4492 Q1371.2988,4107.2734 1371.2988,4097.5078 Q1371.2988,4087.7422 1375.4004,4082.5664 Q1379.5508,4077.3906 1387.3633,4077.3906 Q1389.5605,4077.3906 1391.5625,4077.8789 Q1393.6133,4078.3672 1395.3711,4079.2949 L1395.3711,4087.791 Q1393.418,4085.9844 1391.5625,4085.1543 Q1389.707,4084.2754 1387.7539,4084.2754 Q1383.5547,4084.2754 1381.4063,4087.6445 Q1379.2578,4090.9648 1379.2578,4097.5078 Q1379.2578,4104.0508 1381.4063,4107.4199 Q1383.5547,4110.7402 1387.7539,4110.7402 Q1389.707,4110.7402 1391.5625,4109.9102 Q1393.418,4109.0313 1395.3711,4107.2246 L1395.3711,4115.7207 Z " fill="#000000"/><text fill="#000000" font-family="sans-serif" font-size="43.75" lengthAdjust="spacing" textLength="146.5454" x="1429.8438" y="4113.2396">Button</text></g><!--class DigitDisplay--><g class="entity" data-entity="DigitDisplay" data-source-line="136" data-uid="ent0043" id="entity_DigitDisplay"><rect fill="#F1F1F1" height="100" rx="7.8125" ry="7.8125" style="stroke:#181818;stroke-width:1.5625;" width="364.1876" x="5080.4063" y="2092.0625"/><ellipse cx="5127.2813" cy="2142.0625" fill="#ADD1B2" rx="34.375" ry="34.375" style="stroke:#181818;stroke-width:3.125;"/><path d="M5136.5586,2159.6895 Q5134.752,2160.6172 5132.75,2161.0566 Q5130.748,2161.5449 5128.5508,2161.5449 Q5120.7383,2161.5449 5116.5879,2156.418 Q5112.4863,2151.2422 5112.4863,2141.4766 Q5112.4863,2131.7109 5116.5879,2126.5352 Q5120.7383,2121.3594 5128.5508,2121.3594 Q5130.748,2121.3594 5132.75,2121.8477 Q5134.8008,2122.3359 5136.5586,2123.2637 L5136.5586,2131.7598 Q5134.6055,2129.9531 5132.75,2129.123 Q5130.8945,2128.2441 5128.9414,2128.2441 Q5124.7422,2128.2441 5122.5938,2131.6133 Q5120.4453,2134.9336 5120.4453,2141.4766 Q5120.4453,2148.0195 5122.5938,2151.3887 Q5124.7422,2154.709 5128.9414,2154.709 Q5130.8945,2154.709 5132.75,2153.8789 Q5134.6055,2153 5136.5586,2151.1934 L5136.5586,2159.6895 Z " fill="#000000"/><text fill="#000000" font-family="sans-serif" font-size="43.75" lengthAdjust="spacing" textLength="264.1876" x="5171.0313" y="2157.2084">DigitDisplay</text></g><!--class Keypad--><g class="entity" data-entity="Keypad" data-source-line="138" data-uid="ent0044" id="entity_Keypad"><rect fill="#F1F1F1" height="353.7109" rx="7.8125" ry="7.8125" style="stroke:#181818;stroke-width:1.5625;" width="657.0709" x="1277.7188" y="4335.5938"/><ellipse cx="1511.0485" cy="4385.5938" fill="#ADD1B2" rx="34.375" ry="34.375" style="stroke:#181818;stroke-width:3.125;"/><path d="M1520.3259,4403.2207 Q1518.5192,4404.1484 1516.5173,4404.5879 Q1514.5153,4405.0762 1512.3181,4405.0762 Q1504.5056,4405.0762 1500.3552,4399.9492 Q1496.2536,4394.7734 1496.2536,4385.0078 Q1496.2536,4375.2422 1500.3552,4370.0664 Q1504.5056,4364.8906 1512.3181,4364.8906 Q1514.5153,4364.8906 1516.5173,4365.3789 Q1518.5681,4365.8672 1520.3259,4366.7949 L1520.3259,4375.291 Q1518.3727,4373.4844 1516.5173,4372.6543 Q1514.6618,4371.7754 1512.7087,4371.7754 Q1508.5095,4371.7754 1506.361,4375.1445 Q1504.2126,4378.4648 1504.2126,4385.0078 Q1504.2126,4391.5508 1506.361,4394.9199 Q1508.5095,4398.2402 1512.7087,4398.2402 Q1514.6618,4398.2402 1516.5173,4397.4102 Q1518.3727,4396.5313 1520.3259,4394.7246 L1520.3259,4403.2207 Z " fill="#000000"/><text fill="#000000" font-family="sans-serif" font-size="43.75" lengthAdjust="spacing" textLength="163.8489" x="1575.111" y="4400.7396">Keypad</text><line style="stroke:#181818;stroke-width:1.5625;" x1="1280.8438" x2="1931.6647" y1="4435.5938" y2="4435.5938"/><ellipse cx="1312.0938" cy="4478.2451" fill="none" rx="9.375" ry="9.375" style="stroke:#038048;stroke-width:3.125;"/><text fill="#000000" font-family="sans-serif" font-size="43.75" lengthAdjust="spacing" textLength="575.8209" x="1340.2188" y="4488.7035">ButtonInfo::Type lastPress</text><line style="stroke:#181818;stroke-width:1.5625;" x1="1280.8438" x2="1931.6647" y1="4511.5215" y2="4511.5215"/><ellipse cx="1312.0938" cy="4554.1729" fill="#84BE84" rx="9.375" ry="9.375" style="stroke:#038048;stroke-width:3.125;"/><text fill="#000000" font-family="sans-serif" font-size="43.75" lengthAdjust="spacing" textLength="197.9858" x="1340.2188" y="4564.6312">Keypad()</text><ellipse cx="1312.0938" cy="4605.1006" fill="#84BE84" rx="9.375" ry="9.375" style="stroke:#038048;stroke-width:3.125;"/><text fill="#000000" font-family="sans-serif" font-size="43.75" lengthAdjust="spacing" textLength="262.97" x="1340.2188" y="4615.559">void begin()</text><ellipse cx="1312.0938" cy="4656.0283" fill="#84BE84" rx="9.375" ry="9.375" style="stroke:#038048;stroke-width:3.125;"/><text fill="#000000" font-family="sans-serif" font-size="43.75" lengthAdjust="spacing" textLength="531.1523" x="1340.2188" y="4666.4867">const ButtonInfo* read()</text></g><!--class Color--><g class="entity" data-entity="Color" data-source-line="145" data-uid="ent0045" id="entity_Color"><rect fill="#F1F1F1" height="379.6387" rx="7.8125" ry="7.8125" style="stroke:#181818;stroke-width:1.5625;" width="218.3105" x="2865.8438" y="779.5312"/><ellipse cx="2914.5576" cy="829.5312" fill="#EB937F" rx="34.375" ry="34.375" style="stroke:#181818;stroke-width:3.125;"/><path d="M2927.3994,848.2812 L2903.2783,848.2812 L2903.2783,809.5605 L2927.3994,809.5605 L2927.3994,816.2988 L2910.9443,816.2988 L2910.9443,824.6484 L2925.8369,824.6484 L2925.8369,831.3867 L2910.9443,831.3867 L2910.9443,841.543 L2927.3994,841.543 L2927.3994,848.2812 Z " fill="#000000"/><text fill="#000000" font-family="sans-serif" font-size="43.75" lengthAdjust="spacing" textLength="114.2242" x="2958.7162" y="844.6771">Color</text><line style="stroke:#181818;stroke-width:1.5625;" x1="2868.9688" x2="3081.0293" y1="879.5312" y2="879.5312"/><text fill="#000000" font-family="sans-serif" font-size="43.75" lengthAdjust="spacing" textLength="143.4265" x="2884.5938" y="932.641">WHITE</text><text fill="#000000" font-family="sans-serif" font-size="43.75" lengthAdjust="spacing" textLength="114.0533" x="2884.5938" y="983.5687">BLUE</text><text fill="#000000" font-family="sans-serif" font-size="43.75" lengthAdjust="spacing" textLength="152.3132" x="2884.5938" y="1034.4965">GREEN</text><text fill="#000000" font-family="sans-serif" font-size="43.75" lengthAdjust="spacing" textLength="180.8105" x="2884.5938" y="1085.4242">YELLOW</text><text fill="#000000" font-family="sans-serif" font-size="43.75" lengthAdjust="spacing" textLength="91.7297" x="2884.5938" y="1136.3519">RED</text></g><!--class SignalLight--><g class="entity" data-entity="SignalLight" data-source-line="153" data-uid="ent0046" id="entity_SignalLight"><rect fill="#F1F1F1" height="100" rx="7.8125" ry="7.8125" style="stroke:#181818;stroke-width:1.5625;" width="343.573" x="2803.2188" y="1423.0625"/><ellipse cx="2850.0938" cy="1473.0625" fill="#ADD1B2" rx="34.375" ry="34.375" style="stroke:#181818;stroke-width:3.125;"/><path d="M2859.3711,1490.6895 Q2857.5645,1491.6172 2855.5625,1492.0566 Q2853.5605,1492.5449 2851.3633,1492.5449 Q2843.5508,1492.5449 2839.4004,1487.418 Q2835.2988,1482.2422 2835.2988,1472.4766 Q2835.2988,1462.7109 2839.4004,1457.5352 Q2843.5508,1452.3594 2851.3633,1452.3594 Q2853.5605,1452.3594 2855.5625,1452.8477 Q2857.6133,1453.3359 2859.3711,1454.2637 L2859.3711,1462.7598 Q2857.418,1460.9531 2855.5625,1460.123 Q2853.707,1459.2441 2851.7539,1459.2441 Q2847.5547,1459.2441 2845.4063,1462.6133 Q2843.2578,1465.9336 2843.2578,1472.4766 Q2843.2578,1479.0195 2845.4063,1482.3887 Q2847.5547,1485.709 2851.7539,1485.709 Q2853.707,1485.709 2855.5625,1484.8789 Q2857.418,1484 2859.3711,1482.1934 L2859.3711,1490.6895 Z " fill="#000000"/><text fill="#000000" font-family="sans-serif" font-size="43.75" lengthAdjust="spacing" textLength="243.573" x="2893.8438" y="1488.2084">SignalLight</text></g><!--class SignalLights--><g class="entity" data-entity="SignalLights" data-source-line="155" data-uid="ent0048" id="entity_SignalLights"><rect fill="#F1F1F1" height="100" rx="7.8125" ry="7.8125" style="stroke:#181818;stroke-width:1.5625;" width="366.3666" x="2391.8125" y="2092.0625"/><ellipse cx="2438.6875" cy="2142.0625" fill="#ADD1B2" rx="34.375" ry="34.375" style="stroke:#181818;stroke-width:3.125;"/><path d="M2447.9648,2159.6895 Q2446.1582,2160.6172 2444.1563,2161.0566 Q2442.1543,2161.5449 2439.957,2161.5449 Q2432.1445,2161.5449 2427.9941,2156.418 Q2423.8926,2151.2422 2423.8926,2141.4766 Q2423.8926,2131.7109 2427.9941,2126.5352 Q2432.1445,2121.3594 2439.957,2121.3594 Q2442.1543,2121.3594 2444.1563,2121.8477 Q2446.207,2122.3359 2447.9648,2123.2637 L2447.9648,2131.7598 Q2446.0117,2129.9531 2444.1563,2129.123 Q2442.3008,2128.2441 2440.3477,2128.2441 Q2436.1484,2128.2441 2434,2131.6133 Q2431.8516,2134.9336 2431.8516,2141.4766 Q2431.8516,2148.0195 2434,2151.3887 Q2436.1484,2154.709 2440.3477,2154.709 Q2442.3008,2154.709 2444.1563,2153.8789 Q2446.0117,2153 2447.9648,2151.1934 L2447.9648,2159.6895 Z " fill="#000000"/><text fill="#000000" font-family="sans-serif" font-size="43.75" lengthAdjust="spacing" textLength="266.3666" x="2482.4375" y="2157.2084">SignalLights</text></g><!--class Symbol--><g class="entity" data-entity="Symbol" data-source-line="163" data-uid="ent0052" id="entity_Symbol"><rect fill="#F1F1F1" height="100" rx="7.8125" ry="7.8125" style="stroke:#181818;stroke-width:1.5625;" width="262.973" x="5521.625" y="1423.0625"/><ellipse cx="5568.5" cy="1473.0625" fill="#ADD1B2" rx="34.375" ry="34.375" style="stroke:#181818;stroke-width:3.125;"/><path d="M5577.7773,1490.6895 Q5575.9707,1491.6172 5573.9688,1492.0566 Q5571.9668,1492.5449 5569.7695,1492.5449 Q5561.957,1492.5449 5557.8066,1487.418 Q5553.7051,1482.2422 5553.7051,1472.4766 Q5553.7051,1462.7109 5557.8066,1457.5352 Q5561.957,1452.3594 5569.7695,1452.3594 Q5571.9668,1452.3594 5573.9688,1452.8477 Q5576.0195,1453.3359 5577.7773,1454.2637 L5577.7773,1462.7598 Q5575.8242,1460.9531 5573.9688,1460.123 Q5572.1133,1459.2441 5570.1602,1459.2441 Q5565.9609,1459.2441 5563.8125,1462.6133 Q5561.6641,1465.9336 5561.6641,1472.4766 Q5561.6641,1479.0195 5563.8125,1482.3887 Q5565.9609,1485.709 5570.1602,1485.709 Q5572.1133,1485.709 5573.9688,1484.8789 Q5575.8242,1484 5577.7773,1482.1934 L5577.7773,1490.6895 Z " fill="#000000"/><text fill="#000000" font-family="sans-serif" font-size="43.75" lengthAdjust="spacing" textLength="162.973" x="5612.25" y="1488.2084">Symbol</text></g><!--class SymbolString--><g class="entity" data-entity="SymbolString" data-source-line="163" data-uid="ent0053" id="entity_SymbolString"><rect fill="#F1F1F1" height="100" rx="7.8125" ry="7.8125" style="stroke:#181818;stroke-width:1.5625;" width="393.5394" x="6700.0938" y="2092.0625"/><ellipse cx="6746.9688" cy="2142.0625" fill="#ADD1B2" rx="34.375" ry="34.375" style="stroke:#181818;stroke-width:3.125;"/><path d="M6756.2461,2159.6895 Q6754.4395,2160.6172 6752.4375,2161.0566 Q6750.4355,2161.5449 6748.2383,2161.5449 Q6740.4258,2161.5449 6736.2754,2156.418 Q6732.1738,2151.2422 6732.1738,2141.4766 Q6732.1738,2131.7109 6736.2754,2126.5352 Q6740.4258,2121.3594 6748.2383,2121.3594 Q6750.4355,2121.3594 6752.4375,2121.8477 Q6754.4883,2122.3359 6756.2461,2123.2637 L6756.2461,2131.7598 Q6754.293,2129.9531 6752.4375,2129.123 Q6750.582,2128.2441 6748.6289,2128.2441 Q6744.4297,2128.2441 6742.2813,2131.6133 Q6740.1328,2134.9336 6740.1328,2141.4766 Q6740.1328,2148.0195 6742.2813,2151.3887 Q6744.4297,2154.709 6748.6289,2154.709 Q6750.582,2154.709 6752.4375,2153.8789 Q6754.293,2153 6756.2461,2151.1934 L6756.2461,2159.6895 Z " fill="#000000"/><text fill="#000000" font-family="sans-serif" font-size="43.75" lengthAdjust="spacing" textLength="293.5394" x="6790.7188" y="2157.2084">SymbolString</text></g><!--reverse link Pin to OutputPin--><g class="link" data-entity-1="Pin" data-entity-2="OutputPin" data-source-line="16" data-uid="lnk7" id="link_Pin_OutputPin"><path d="M2337.0938,179.9375 C2400,179.9375 2418.9688,179.9375 2418.9688,179.9375 C2418.9688,179.9375 2418.9688,332.375 2418.9688,414.5625" fill="none" id="Pin-backto-OutputPin" style="stroke:#181818;stroke-width:3.125;"/><polygon fill="none" points="2280.8438,179.9375,2337.0938,198.6875,2337.0938,161.1875,2280.8438,179.9375" style="stroke:#181818;stroke-width:3.125;"/></g><!--reverse link Pin to InputPin--><g class="link" data-entity-1="Pin" data-entity-2="InputPin" data-source-line="18" data-uid="lnk9" id="link_Pin_InputPin"><path d="M2193.9375,285.7812 C2193.9375,338.125 2193.9375,362.5 2193.9375,414.6875" fill="none" id="Pin-backto-InputPin" style="stroke:#181818;stroke-width:3.125;"/><polygon fill="none" points="2193.9375,229.5312,2175.1875,285.7812,2212.6875,285.7812,2193.9375,229.5312" style="stroke:#181818;stroke-width:3.125;"/></g><!--reverse link InputPin to DigitalIn--><g class="link" data-entity-1="InputPin" data-entity-2="DigitalIn" data-source-line="20" data-uid="lnk11" id="link_InputPin_DigitalIn"><path d="M2133.5625,572.9375 C2133.5625,669.5 2133.5625,821.5 2133.5625,918.125" fill="none" id="InputPin-backto-DigitalIn" style="stroke:#181818;stroke-width:3.125;"/><polygon fill="none" points="2133.5625,516.6875,2114.8125,572.9375,2152.3125,572.9375,2133.5625,516.6875" style="stroke:#181818;stroke-width:3.125;"/></g><!--reverse link OutputPin to DigitalOut--><g class="link" data-entity-1="OutputPin" data-entity-2="DigitalOut" data-source-line="22" data-uid="lnk13" id="link_OutputPin_DigitalOut"><path d="M2543.75,572.9375 C2543.75,669.5 2543.75,821.5 2543.75,918.125" fill="none" id="OutputPin-backto-DigitalOut" style="stroke:#181818;stroke-width:3.125;"/><polygon fill="none" points="2543.75,516.6875,2525,572.9375,2562.5,572.9375,2543.75,516.6875" style="stroke:#181818;stroke-width:3.125;"/></g><!--reverse link PinArray to OutputPinArray--><g class="link" data-entity-1="PinArray" data-entity-2="OutputPinArray" data-source-line="27" data-uid="lnk16" id="link_PinArray_OutputPinArray"><path d="M1151.3125,572.9375 C1151.3125,669.5 1151.3125,821.5 1151.3125,918.125" fill="none" id="PinArray-backto-OutputPinArray" style="stroke:#181818;stroke-width:3.125;"/><polygon fill="none" points="1151.3125,516.6875,1132.5625,572.9375,1170.0625,572.9375,1151.3125,516.6875" style="stroke:#181818;stroke-width:3.125;"/></g><!--reverse link PinArray to InputPinArrayBase--><g class="link" data-entity-1="PinArray" data-entity-2="InputPinArrayBase" data-source-line="29" data-uid="lnk18" id="link_PinArray_InputPinArrayBase"><path d="M821.4063,572.9375 C821.4063,669.5 821.4063,821.5 821.4063,918.125" fill="none" id="PinArray-backto-InputPinArrayBase" style="stroke:#181818;stroke-width:3.125;"/><polygon fill="none" points="821.4063,516.6875,802.6563,572.9375,840.1563,572.9375,821.4063,516.6875" style="stroke:#181818;stroke-width:3.125;"/></g><!--reverse link InputPinArrayBase to InputPinArrayDigitalIn--><g class="link" data-entity-1="InputPinArrayBase" data-entity-2="InputPinArrayDigitalIn" data-source-line="32" data-uid="lnk20" id="link_InputPinArrayBase_InputPinArrayDigitalIn"><path d="M865.8438,1076.6563 C865.8438,1173.2187 865.8438,1325.1875 865.8438,1421.8438" fill="none" id="InputPinArrayBase-backto-InputPinArrayDigitalIn" style="stroke:#181818;stroke-width:3.125;"/><polygon fill="none" points="865.8438,1020.4062,847.0938,1076.6563,884.5938,1076.6563,865.8438,1020.4062" style="stroke:#181818;stroke-width:3.125;"/></g><!--reverse link VariadicAggregation to VariadicAggregationSegment--><g class="link" data-entity-1="VariadicAggregation" data-entity-2="VariadicAggregationSegment" data-source-line="100" data-uid="lnk33" id="link_VariadicAggregation_VariadicAggregationSegment"><path d="M5009.375,1076.6563 C5009.375,1173.2187 5009.375,1325.1875 5009.375,1421.8438" fill="none" id="VariadicAggregation-backto-VariadicAggregationSegment" style="stroke:#181818;stroke-width:3.125;"/><polygon fill="none" points="5009.375,1020.4062,4990.625,1076.6563,5028.125,1076.6563,5009.375,1020.4062" style="stroke:#181818;stroke-width:3.125;"/></g><!--reverse link VariadicAggregationSegment to Symbols--><g class="link" data-entity-1="VariadicAggregationSegment" data-entity-2="Symbols" data-source-line="102" data-uid="lnk35" id="link_VariadicAggregationSegment_Symbols"><path d="M4828.125,1580.6875 C4828.125,1705.2187 4828.125,1965.7812 4828.125,2090.5" fill="none" id="VariadicAggregationSegment-backto-Symbols" style="stroke:#181818;stroke-width:3.125;"/><polygon fill="none" points="4828.125,1524.4375,4809.375,1580.6875,4846.875,1580.6875,4828.125,1524.4375" style="stroke:#181818;stroke-width:3.125;"/></g><!--reverse link ButtonInfo to Button--><g class="link" data-entity-1="ButtonInfo" data-entity-2="Button" data-source-line="134" data-uid="lnk42" id="link_ButtonInfo_Button"><path d="M2407.5938,3917.5312 C2407.5938,4004.6563 2407.5938,4117.4375 2407.5938,4117.4375 C2407.5938,4117.4375 1843.6563,4117.4375 1587.0313,4117.4375" fill="none" id="ButtonInfo-backto-Button" style="stroke:#181818;stroke-width:3.125;"/><polygon fill="none" points="2407.5938,3861.2812,2388.8438,3917.5312,2426.3438,3917.5312,2407.5938,3861.2812" style="stroke:#181818;stroke-width:3.125;"/></g><!--reverse link DigitalOut to SignalLight--><g class="link" data-entity-1="DigitalOut" data-entity-2="SignalLight" data-source-line="153" data-uid="lnk47" id="link_DigitalOut_SignalLight"><path d="M2761.5313,970.5625 C2828.4688,970.5625 2834.5313,970.5625 2834.5313,970.5625 C2834.5313,970.5625 2834.5313,1294.3437 2834.5313,1422.0937" fill="none" id="DigitalOut-backto-SignalLight" style="stroke:#181818;stroke-width:3.125;"/><polygon fill="none" points="2705.2813,970.5625,2761.5313,989.3125,2761.5313,951.8125,2705.2813,970.5625" style="stroke:#181818;stroke-width:3.125;"/></g><!--link OperationTypes to Operation--><g class="link" data-entity-1="OperationTypes" data-entity-2="Operation" data-source-line="157" data-uid="lnk49" id="link_OperationTypes_Operation"><path codeLine="157" d="M6140.2188,2295.5625 C5785.4688,2295.5625 5136.7813,2295.5625 5136.7813,2295.5625 C5136.7813,2295.5625 5136.7813,2880.4375 5136.7813,3066.4375" fill="none" id="OperationTypes-to-Operation" style="stroke:#181818;stroke-width:3.125;"/><ellipse cx="5136.7813" cy="3091.4375" fill="#FFFFFF" rx="25" ry="25" style="stroke:#181818;stroke-width:3.125;"/><line style="stroke:#181818;stroke-width:3.125;" x1="5136.7813" x2="5136.7813" y1="3066.4375" y2="3116.4375"/><line style="stroke:#181818;stroke-width:3.125;" x1="5161.7813" x2="5111.7813" y1="3091.4375" y2="3091.4375"/></g><!--link Operation to Operations--><g class="link" data-entity-1="Operation" data-entity-2="Operations" data-source-line="159" data-uid="lnk50" id="link_Operation_Operations"><path codeLine="159" d="M5090.625,3217.5625 C5090.625,3337.5625 5090.625,3601.2812 5090.625,3721.9375" fill="none" id="Operation-to-Operations" style="stroke:#181818;stroke-width:3.125;"/><polygon fill="#181818" points="5090.625,3759.4375,5103.125,3740.6875,5090.625,3721.9375,5078.125,3740.6875,5090.625,3759.4375" style="stroke:#181818;stroke-width:3.125;"/></g><!--link Segments to VariadicAggregationSegment--><g class="link" data-entity-1="Segments" data-entity-2="VariadicAggregationSegment" data-source-line="161" data-uid="lnk51" id="link_Segments_VariadicAggregationSegment"><path codeLine="161" d="M5422,1236.5938 C5422,1350.6875 5422,1458.0625 5422,1458.0625 C5422,1458.0625 5455.9375,1458.0625 5449.4688,1458.0625" fill="none" id="Segments-to-VariadicAggregationSegment" style="stroke:#181818;stroke-width:3.125;"/><polygon fill="none" points="5411.9688,1458.0625,5430.7188,1470.5625,5449.4688,1458.0625,5430.7188,1445.5625,5411.9688,1458.0625" style="stroke:#181818;stroke-width:3.125;"/></g><!--link Symbol to SymbolString--><g class="link" data-entity-1="Symbol" data-entity-2="SymbolString" data-source-line="163" data-uid="lnk54" id="link_Symbol_SymbolString"><path codeLine="163" d="M5785.0625,1473.6875 C6105.1563,1473.6875 6896.875,1473.6875 6896.875,1473.6875 C6896.875,1473.6875 6896.875,1896.7187 6896.875,2053.2188" fill="none" id="Symbol-to-SymbolString" style="stroke:#181818;stroke-width:3.125;"/><polygon fill="none" points="6896.875,2090.7188,6909.375,2071.9688,6896.875,2053.2188,6884.375,2071.9688,6896.875,2090.7188" style="stroke:#181818;stroke-width:3.125;"/></g><!--link Action to Actions--><g class="link" data-entity-1="Action" data-entity-2="Actions" data-source-line="165" data-uid="lnk55" id="link_Action_Actions"><path codeLine="165" d="M2085.375,3217.5625 C2085.375,3337.5625 2085.375,3601.2812 2085.375,3721.9375" fill="none" id="Action-to-Actions" style="stroke:#181818;stroke-width:3.125;"/><polygon fill="#181818" points="2085.375,3759.4375,2097.875,3740.6875,2085.375,3721.9375,2072.875,3740.6875,2085.375,3759.4375" style="stroke:#181818;stroke-width:3.125;"/></g><!--link ActionTypes to Action--><g class="link" data-entity-1="ActionTypes" data-entity-2="Action" data-source-line="167" data-uid="lnk56" id="link_ActionTypes_Action"><path codeLine="167" d="M2060.375,2282.4375 C2060.375,2513.8125 2060.375,2914.75 2060.375,3066.125" fill="none" id="ActionTypes-to-Action" style="stroke:#181818;stroke-width:3.125;"/><ellipse cx="2060.375" cy="3091.125" fill="#FFFFFF" rx="25" ry="25" style="stroke:#181818;stroke-width:3.125;"/><line style="stroke:#181818;stroke-width:3.125;" x1="2060.375" x2="2060.375" y1="3066.125" y2="3116.125"/><line style="stroke:#181818;stroke-width:3.125;" x1="2085.375" x2="2035.375" y1="3091.125" y2="3091.125"/></g><!--link Value to Calculator--><g class="link" data-entity-1="Value" data-entity-2="Calculator" data-source-line="169" data-uid="lnk57" id="link_Value_Calculator"><path codeLine="169" d="M3556.25,1524.4375 C3556.25,1568.0313 3556.25,1597.7188 3556.25,1671.9688" fill="none" id="Value-to-Calculator" style="stroke:#181818;stroke-width:3.125;"/><polygon fill="#181818" points="3556.25,1709.4688,3568.75,1690.7188,3556.25,1671.9688,3543.75,1690.7188,3556.25,1709.4688" style="stroke:#181818;stroke-width:3.125;"/></g><!--link OperationAction to Calculator--><g class="link" data-entity-1="OperationAction" data-entity-2="Calculator" data-source-line="171" data-uid="lnk58" id="link_OperationAction_Calculator"><path codeLine="171" d="M4006.25,1524.4375 C4006.25,1568.0313 4006.25,1585.2188 4006.25,1659.4688" fill="none" id="OperationAction-to-Calculator" style="stroke:#181818;stroke-width:3.125;"/><ellipse cx="4006.25" cy="1684.4688" fill="#FFFFFF" rx="25" ry="25" style="stroke:#181818;stroke-width:3.125;"/><line style="stroke:#181818;stroke-width:3.125;" x1="4006.25" x2="4006.25" y1="1659.4688" y2="1709.4688"/><line style="stroke:#181818;stroke-width:3.125;" x1="4031.25" x2="3981.25" y1="1684.4688" y2="1684.4688"/></g><!--link Calculator to Display--><g class="link" data-entity-1="Calculator" data-entity-2="Display" data-source-line="173" data-uid="lnk59" id="link_Calculator_Display"><path codeLine="173" d="M4284.375,2573.7812 C4284.375,2635.3438 4284.375,2679.7187 4284.375,2740.8125" fill="none" id="Calculator-to-Display" style="stroke:#181818;stroke-width:3.125;"/><polygon fill="#181818" points="4284.375,2759.5625,4296.875,2731.4375,4284.375,2743.9375,4271.875,2731.4375,4284.375,2759.5625" style="stroke:#181818;stroke-width:3.125;"/></g><!--link Calculator to Operation--><g class="link" data-entity-1="Calculator" data-entity-2="Operation" data-source-line="175" data-uid="lnk60" id="link_Calculator_Operation"><path codeLine="175" d="M4353.9375,2454.9375 C4640.1875,2454.9375 4951.375,2454.9375 4951.375,2454.9375 C4951.375,2454.9375 4951.375,2933.8125 4951.375,3097.0938" fill="none" id="Calculator-to-Operation" style="stroke:#181818;stroke-width:3.125;"/><polygon fill="#181818" points="4951.375,3115.8438,4963.875,3087.7188,4951.375,3100.2188,4938.875,3087.7188,4951.375,3115.8438" style="stroke:#181818;stroke-width:3.125;"/></g><!--link Calculator to Action--><g class="link" data-entity-1="Calculator" data-entity-2="Action" data-source-line="176" data-uid="lnk61" id="link_Calculator_Action"><path codeLine="176" d="M3414.5313,2429.9375 C2897.75,2429.9375 2139.625,2429.9375 2139.625,2429.9375 C2139.625,2429.9375 2139.625,2931.125 2139.625,3097.6563" fill="none" id="Calculator-to-Action" style="stroke:#181818;stroke-width:3.125;"/><polygon fill="#181818" points="2139.625,3116.4063,2152.125,3088.2813,2139.625,3100.7813,2127.125,3088.2813,2139.625,3116.4063" style="stroke:#181818;stroke-width:3.125;"/></g><!--link State to Display--><g class="link" data-entity-1="State" data-entity-2="Display" data-source-line="178" data-uid="lnk62" id="link_State_Display"><path codeLine="178" d="M2975,2281.7813 C2975,2506.625 2975,2923.6875 2975,2923.6875 C2975,2923.6875 3726.3438,2923.6875 4176.25,2923.6875" fill="none" id="State-to-Display" style="stroke:#181818;stroke-width:3.125;"/><polygon fill="#181818" points="4213.75,2923.6875,4195,2911.1875,4176.25,2923.6875,4195,2936.1875,4213.75,2923.6875" style="stroke:#181818;stroke-width:3.125;"/></g><!--link Sign to Display--><g class="link" data-entity-1="Sign" data-entity-2="Display" data-source-line="179" data-uid="lnk63" id="link_Sign_Display"><path codeLine="179" d="M5772.7813,2226.8125 C5476.25,2226.8125 4776.5938,2226.8125 4776.5938,2226.8125 C4776.5938,2226.8125 4776.5938,2468.5 4776.5938,2722.625" fill="none" id="Sign-to-Display" style="stroke:#181818;stroke-width:3.125;"/><polygon fill="#181818" points="4776.5938,2760.125,4789.0938,2741.375,4776.5938,2722.625,4764.0938,2741.375,4776.5938,2760.125" style="stroke:#181818;stroke-width:3.125;"/></g><!--link PinPair to Display--><g class="link" data-entity-1="PinPair" data-entity-2="Display" data-source-line="181" data-uid="lnk64" id="link_PinPair_Display"><path codeLine="181" d="M2703.9375,179.9375 C3133.8438,179.9375 4518.25,179.9375 4518.25,179.9375 C4518.25,179.9375 4518.25,1904.625 4518.25,2722.0313" fill="none" id="PinPair-to-Display" style="stroke:#181818;stroke-width:3.125;"/><polygon fill="#181818" points="4518.25,2759.5313,4530.75,2740.7813,4518.25,2722.0313,4505.75,2740.7813,4518.25,2759.5313" style="stroke:#181818;stroke-width:3.125;"/></g><!--link DigitDisplay to Display--><g class="link" data-entity-1="DigitDisplay" data-entity-2="Display" data-source-line="183" data-uid="lnk65" id="link_DigitDisplay_Display"><path codeLine="183" d="M5193.125,2192.75 C5193.125,2359.4688 5193.125,2879.9375 5193.125,2879.9375 C5193.125,2879.9375 5039.5938,2879.9375 4860.875,2879.9375" fill="none" id="DigitDisplay-to-Display" style="stroke:#181818;stroke-width:3.125;"/><polygon fill="#181818" points="4823.375,2879.9375,4842.125,2892.4375,4860.875,2879.9375,4842.125,2867.4375,4823.375,2879.9375" style="stroke:#181818;stroke-width:3.125;"/></g><!--link Symbol to DigitDisplay--><g class="link" data-entity-1="Symbol" data-entity-2="DigitDisplay" data-source-line="185" data-uid="lnk66" id="link_Symbol_DigitDisplay"><path codeLine="185" d="M5520.1875,1492.4375 C5473.875,1492.4375 5433.3125,1492.4375 5433.3125,1492.4375 C5433.3125,1492.4375 5433.3125,1900.4375 5433.3125,2053.5625" fill="none" id="Symbol-to-DigitDisplay" style="stroke:#181818;stroke-width:3.125;"/><polygon fill="none" points="5433.3125,2091.0625,5445.8125,2072.3125,5433.3125,2053.5625,5420.8125,2072.3125,5433.3125,2091.0625" style="stroke:#181818;stroke-width:3.125;"/></g><!--link Symbol to Display--><g class="link" data-entity-1="Symbol" data-entity-2="Display" data-source-line="186" data-uid="lnk67" id="link_Symbol_Display"><path codeLine="186" d="M5647.6563,1523.8125 C5647.6563,1788.5312 5647.6563,2998.6875 5647.6563,2998.6875 C5647.6563,2998.6875 5175.875,2998.6875 4841.5,2998.6875" fill="none" id="Symbol-to-Display" style="stroke:#181818;stroke-width:3.125;"/><polygon fill="#181818" points="4822.75,2998.6875,4850.875,3011.1875,4838.375,2998.6875,4850.875,2986.1875,4822.75,2998.6875" style="stroke:#181818;stroke-width:3.125;"/></g><!--link Symbols to Display--><g class="link" data-entity-1="Symbols" data-entity-2="Display" data-source-line="187" data-uid="lnk68" id="link_Symbols_Display"><path codeLine="187" d="M4730.9063,2192.875 C4730.9063,2296.6875 4730.9063,2523 4730.9063,2741.3437" fill="none" id="Symbols-to-Display" style="stroke:#181818;stroke-width:3.125;"/><polygon fill="#181818" points="4730.9063,2760.0937,4743.4063,2731.9687,4730.9063,2744.4687,4718.4063,2731.9687,4730.9063,2760.0937" style="stroke:#181818;stroke-width:3.125;"/></g><!--link Type to ButtonInfo--><g class="link" data-entity-1="Type" data-entity-2="ButtonInfo" data-source-line="189" data-uid="lnk69" id="link_Type_ButtonInfo"><path codeLine="189" d="M2475,3332.7813 C2475,3474.3125 2475,3618.9688 2475,3709.9062" fill="none" id="Type-to-ButtonInfo" style="stroke:#181818;stroke-width:3.125;"/><ellipse cx="2475" cy="3734.9062" fill="#FFFFFF" rx="25" ry="25" style="stroke:#181818;stroke-width:3.125;"/><line style="stroke:#181818;stroke-width:3.125;" x1="2475" x2="2475" y1="3709.9062" y2="3759.9062"/><line style="stroke:#181818;stroke-width:3.125;" x1="2500" x2="2450" y1="3734.9062" y2="3734.9062"/></g><!--link Operation to ButtonInfo--><g class="link" data-entity-1="Operation" data-entity-2="ButtonInfo" data-source-line="191" data-uid="lnk70" id="link_Operation_ButtonInfo"><path codeLine="191" d="M4931.25,3167.4375 C4897.2188,3167.4375 4871.3125,3167.4375 4871.3125,3167.4375 C4871.3125,3167.4375 4871.3125,3811.1875 4871.3125,3811.1875 C4871.3125,3811.1875 3209.7813,3811.1875 2665.5625,3811.1875" fill="none" id="Operation-to-ButtonInfo" style="stroke:#181818;stroke-width:3.125;"/><polygon fill="none" points="2628.0625,3811.1875,2646.8125,3823.6875,2665.5625,3811.1875,2646.8125,3798.6875,2628.0625,3811.1875" style="stroke:#181818;stroke-width:3.125;"/></g><!--link Action to ButtonInfo--><g class="link" data-entity-1="Action" data-entity-2="ButtonInfo" data-source-line="192" data-uid="lnk71" id="link_Action_ButtonInfo"><path codeLine="192" d="M2204.2813,3217.625 C2204.2813,3369.4688 2204.2813,3811.1875 2204.2813,3811.1875 C2204.2813,3811.1875 2209.4063,3811.1875 2260,3811.1875" fill="none" id="Action-to-ButtonInfo" style="stroke:#181818;stroke-width:3.125;"/><polygon fill="none" points="2297.5,3811.1875,2278.75,3798.6875,2260,3811.1875,2278.75,3823.6875,2297.5,3811.1875" style="stroke:#181818;stroke-width:3.125;"/></g><!--link DigitalIn to Button--><g class="link" data-entity-1="DigitalIn" data-entity-2="Button" data-source-line="194" data-uid="lnk72" id="link_DigitalIn_Button"><path codeLine="194" d="M1989,970.5625 C1937.3438,970.5625 1891.4375,970.5625 1891.4375,970.5625 C1891.4375,970.5625 1891.4375,4083.0625 1891.4375,4083.0625 C1891.4375,4083.0625 1750.75,4083.0625 1624.0625,4083.0625" fill="none" id="DigitalIn-to-Button" style="stroke:#181818;stroke-width:3.125;"/><polygon fill="#181818" points="1586.5625,4083.0625,1605.3125,4095.5625,1624.0625,4083.0625,1605.3125,4070.5625,1586.5625,4083.0625" style="stroke:#181818;stroke-width:3.125;"/></g><!--link Button to Keypad--><g class="link" data-entity-1="Button" data-entity-2="Keypad" data-source-line="196" data-uid="lnk73" id="link_Button_Keypad"><path codeLine="196" d="M1462.5,4148.9063 C1462.5,4195.375 1462.5,4229.4063 1462.5,4296.7813" fill="none" id="Button-to-Keypad" style="stroke:#181818;stroke-width:3.125;"/><polygon fill="#181818" points="1462.5,4334.2813,1475,4315.5313,1462.5,4296.7813,1450,4315.5313,1462.5,4334.2813" style="stroke:#181818;stroke-width:3.125;"/></g><!--link ButtonInfo to Keypad--><g class="link" data-entity-1="ButtonInfo" data-entity-2="Keypad" data-source-line="197" data-uid="lnk74" id="link_ButtonInfo_Keypad"><path codeLine="197" d="M2517.4063,3861.2187 C2517.4063,4022.5625 2517.4063,4514.3125 2517.4063,4514.3125 C2517.4063,4514.3125 2233.6875,4514.3125 1972.6875,4514.3125" fill="none" id="ButtonInfo-to-Keypad" style="stroke:#181818;stroke-width:3.125;"/><polygon fill="#181818" points="1935.1875,4514.3125,1953.9375,4526.8125,1972.6875,4514.3125,1953.9375,4501.8125,1935.1875,4514.3125" style="stroke:#181818;stroke-width:3.125;"/></g><!--link InputPinArrayDigitalIn to Keypad--><g class="link" data-entity-1="InputPinArrayDigitalIn" data-entity-2="Keypad" data-source-line="198" data-uid="lnk75" id="link_InputPinArrayDigitalIn_Keypad"><path codeLine="198" d="M1308.4688,1524.5312 C1308.4688,1860.3437 1308.4688,3706.3438 1308.4688,4297.4687" fill="none" id="InputPinArrayDigitalIn-to-Keypad" style="stroke:#181818;stroke-width:3.125;"/><polygon fill="#181818" points="1308.4688,4334.9687,1320.9688,4316.2187,1308.4688,4297.4687,1295.9688,4316.2187,1308.4688,4334.9687" style="stroke:#181818;stroke-width:3.125;"/></g><!--link DigitalIn to InputPinArrayDigitalIn--><g class="link" data-entity-1="DigitalIn" data-entity-2="InputPinArrayDigitalIn" data-source-line="199" data-uid="lnk76" id="link_DigitalIn_InputPinArrayDigitalIn"><path codeLine="199" d="M2131.25,1020.625 C2131.25,1144.3125 2131.25,1448.6875 2131.25,1448.6875 C2131.25,1448.6875 1712.5,1448.6875 1400.625,1448.6875" fill="none" id="DigitalIn-to-InputPinArrayDigitalIn" style="stroke:#181818;stroke-width:3.125;"/><polygon fill="#181818" points="1363.125,1448.6875,1381.875,1461.1875,1400.625,1448.6875,1381.875,1436.1875,1363.125,1448.6875" style="stroke:#181818;stroke-width:3.125;"/></g><!--link SignalLight to SignalLights--><g class="link" data-entity-1="SignalLight" data-entity-2="SignalLights" data-source-line="202" data-uid="lnk77" id="link_SignalLight_SignalLights"><path codeLine="202" d="M2801.75,1498.6875 C2762.0625,1498.6875 2731.2813,1498.6875 2731.2813,1498.6875 C2731.2813,1498.6875 2731.2813,1900.3125 2731.2813,2053" fill="none" id="SignalLight-to-SignalLights" style="stroke:#181818;stroke-width:3.125;"/><polygon fill="#181818" points="2731.2813,2090.5,2743.7813,2071.75,2731.2813,2053,2718.7813,2071.75,2731.2813,2090.5" style="stroke:#181818;stroke-width:3.125;"/></g><!--link SignalLight to Calculator--><g class="link" data-entity-1="SignalLight" data-entity-2="Calculator" data-source-line="204" data-uid="lnk78" id="link_SignalLight_Calculator"><path codeLine="204" d="M3148.25,1473.6875 C3276.8125,1473.6875 3429.875,1473.6875 3429.875,1473.6875 C3429.875,1473.6875 3429.875,1562.0937 3429.875,1690.5625" fill="none" id="SignalLight-to-Calculator" style="stroke:#181818;stroke-width:3.125;"/><polygon fill="#181818" points="3429.875,1709.3125,3442.375,1681.1875,3429.875,1693.6875,3417.375,1681.1875,3429.875,1709.3125" style="stroke:#181818;stroke-width:3.125;"/></g><!--link SignalLight to Display--><g class="link" data-entity-1="SignalLight" data-entity-2="Display" data-source-line="205" data-uid="lnk79" id="link_SignalLight_Display"><path codeLine="205" d="M3114.8438,1524.25 C3114.8438,1772.8437 3114.8438,2842.4375 3114.8438,2842.4375 C3114.8438,2842.4375 3782.4688,2842.4375 4195.375,2842.4375" fill="none" id="SignalLight-to-Display" style="stroke:#181818;stroke-width:3.125;"/><polygon fill="#181818" points="4214.125,2842.4375,4186,2829.9375,4198.5,2842.4375,4186,2854.9375,4214.125,2842.4375" style="stroke:#181818;stroke-width:3.125;"/></g><!--link SignalLight to State--><g class="link" data-entity-1="SignalLight" data-entity-2="State" data-source-line="206" data-uid="lnk80" id="link_SignalLight_State"><path codeLine="206" d="M2975,1524.4375 C2975,1625.4062 2975,1834.0312 2975,1982.9375" fill="none" id="SignalLight-to-State" style="stroke:#181818;stroke-width:3.125;"/><polygon fill="#181818" points="2975,2001.6875,2987.5,1973.5625,2975,1986.0625,2962.5,1973.5625,2975,2001.6875" style="stroke:#181818;stroke-width:3.125;"/></g><!--link SignalLight to Keypad--><g class="link" data-entity-1="SignalLight" data-entity-2="Keypad" data-source-line="207" data-uid="lnk81" id="link_SignalLight_Keypad"><path codeLine="207" d="M2801.6875,1473.6875 C2498.5,1473.6875 1903.75,1473.6875 1903.75,1473.6875 C1903.75,1473.6875 1903.75,3666.125 1903.75,4316.0938" fill="none" id="SignalLight-to-Keypad" style="stroke:#181818;stroke-width:3.125;"/><polygon fill="#181818" points="1903.75,4334.8438,1916.25,4306.7188,1903.75,4319.2188,1891.25,4306.7188,1903.75,4334.8438" style="stroke:#181818;stroke-width:3.125;"/></g><!--link Color to SignalLight--><g class="link" data-entity-1="Color" data-entity-2="SignalLight" data-source-line="209" data-uid="lnk82" id="link_Color_SignalLight"><path codeLine="209" d="M2975,1159.7812 C2975,1253.9375 2975,1310.3125 2975,1371.7187" fill="none" id="Color-to-SignalLight" style="stroke:#181818;stroke-width:3.125;"/><ellipse cx="2975" cy="1396.7187" fill="#FFFFFF" rx="25" ry="25" style="stroke:#181818;stroke-width:3.125;"/><line style="stroke:#181818;stroke-width:3.125;" x1="2975" x2="2975" y1="1371.7187" y2="1421.7187"/><line style="stroke:#181818;stroke-width:3.125;" x1="3000" x2="2950" y1="1396.7187" y2="1396.7187"/></g><!--SRC=[bLPBRziu4BxpLn2vhEl0JO7Ul841FzHKg68PjfnYJmKZCp9HMHH8EbitoFxsvKDyoKw0vX2Jtmo7y_g6uZz9qoA63d3N4lZvqoV07LAJ1ejJYo5bOay1-6ilHCl7DpTjZHfnFDGVItguAMl4-MX7K2NFW3tPOOWFhJZ10puyOiO1nm9oh4mAok1u301eKVaJLHWU1Qc989Z35m3bdxO57n0ZQ4VAQLKnN251Q7DRJC2hFzUI9Zwo8Wq8jlbHj4SXGOX_2TpipXJIvdtvWbH4e3hr2lR41IrvcrDpDmCGkpTb39rkY_32oKMN-ufEC0dFQgrB4Md1374ScB2oInO24rUHZLkNWyaLHBqBtiwFkxyN_meHfae8REguxA9JLyHh-CA5B7Jv2iqlB6d31VxLCaWQ0JVaD-uKkuE33tztm3CbE_Y8Az8CFeGGmqyCytqCehQLtWxAFMAmZ2GxNCUgPOqHYo7PoGFbJdDKdHs9dcHKlRimOzGR-CyvtW4RKZMGotzsBmF7EdoiyeJb9HrcSZIVPdEzM2URRLRePR9UvsklhImQvLM-IOlq8T6RPN8trPjNc_rfgKWLxtXdnUmAoNjBCNbXOkvR99dpPPjDYoIeQDvYXaAp3h2M7H0QdouMqjDygJURxQnOJ-TkVoy3JLTPEfywQ94-f1kddzujjGicVbmTS2EivVjqiSXC1hBaI_6Zo5TwOt_NwTrNZsgLMLuK-RtU1qkZ602hF5qMFfjNbmPMvupXpWM5JkxuuqRXU7n1srwrEHqUQStTgRSDsnCFg3vYkvcZkZpMUWw_n7mQmfrPTB0-faOuZO1dRSqWcgA-g4E8PESyOzy75zLCUmsXz4VqLHyfhM4ZO-lstjr1tys8QVyo8h1XvXzpMiu8oUh-aAXFWxFmg5t69ZiVSMn3qAggiMAan5_FA649gFjMqQ6hHxvArhxN0oOij_UpP6sM-LBpZWjsB0MS7OMWJTeyKNkBGLoFd2lewTrbr6BVyAb5EzSMPXl750zPanzlV2XJ6PpmWl5O1wWAlfBPvcvUpMdj6l7xrxGmN9rbMxEuMoU92VwV9CloxzqiMlXqglIYEYFLtlD8VHgCn_vblg0hvr5l58r6r-7ySaif64Ppp8sOqOY-Ipv3LArcbXl1I5C1O2gl3Rkv6uvSvOhj3iCvfUgP47ZdJ5r7ye3aez44kZhtS1zlJs1lDu-FkjsQq0zC202JxUvvZqLXayMI83TH9phSEstdNHI8RYSLTTZPOSreA75PYb3Wls2KRqO2G4ST1Ha607ycH4tSRtmIdUd5elVEogSiR6gb7ZTkB9s4XU-Bmgg5kAxh6Tev30mfLNO33Vdj7t-VHeNx7m00]--></g></svg>